<?xml version="1.0" encoding="utf-8"?>
<!-- Generator: Adobe Illustrator 18.1.1, SVG Export Plug-In . SVG Version: 6.00 Build 0)  -->
<!DOCTYPE svg PUBLIC "-//W3C//DTD SVG 1.1//EN" "http://www.w3.org/Graphics/SVG/1.1/DTD/svg11.dtd">
<svg version="1.1" id="Layer_1" xmlns="http://www.w3.org/2000/svg" xmlns:xlink="http://www.w3.org/1999/xlink" x="0px" y="0px"
	 width="175px" height="178px" viewBox="0 0 175 178" enable-background="new 0 0 175 178" xml:space="preserve">
<g>
	<g>
		<path fill="#48474E" d="M106.9,148.2c-21.2,0-38.5-17.3-38.5-38.5s17.3-38.5,38.5-38.5s38.5,17.3,38.5,38.5
			S128.1,148.2,106.9,148.2z M106.9,75.2c-19,0-34.5,15.5-34.5,34.5s15.5,34.5,34.5,34.5s34.5-15.5,34.5-34.5S125.9,75.2,106.9,75.2
			z"/>
	</g>
	<g>
		<path fill="#48474E" d="M106.9,138.2c-15.7,0-28.5-12.8-28.5-28.5s12.8-28.5,28.5-28.5s28.5,12.8,28.5,28.5
			S122.6,138.2,106.9,138.2z M106.9,83.2c-14.7,0-26.6,11.9-26.6,26.6s11.9,26.6,26.6,26.6c14.7,0,26.6-11.9,26.6-26.6
			S121.5,83.2,106.9,83.2z"/>
	</g>
	<g>
		<g>
			<path fill="#48474E" d="M168.8,63.4V134c0,4.6-3.7,8.3-8.3,8.3h-34.3v-3.9h34.3c2.4,0,4.4-2,4.4-4.4V63.4c0-8.2-6.7-15-15-15
				h-22.3l-1.5-0.1l-0.4-1.5l-2.4-10.3c-0.4-1.8-1.5-3-2.7-3H93.2c-1.2,0-2.3,1.3-2.7,3l-2.3,10.2l-0.5,1.5H25.7
				c-8.6,0-15.6,7-15.6,15.6v70c0,2.4,2,4.4,4.4,4.4h72.4v3.9H14.5c-4.6,0-8.3-3.7-8.3-8.3V64c0-10.7,8.7-19.5,19.5-19.5h59.1l2-8.7
				c0.8-3.6,3.4-6.1,6.5-6.1h27.4c3,0,5.6,2.4,6.5,6l2.1,8.8h20.8C160.3,44.5,168.8,53,168.8,63.4z"/>
		</g>
	</g>
	<g>
		<path fill="#48474E" d="M114.9,53.2h-16c-3.3,0-5.9-2.7-5.9-5.9v-4.2c0-3.3,2.7-5.9,5.9-5.9h16c3.3,0,5.9,2.7,5.9,5.9v4.2
			C120.8,50.5,118.1,53.2,114.9,53.2z M98.9,39c-2.2,0-4.1,1.8-4.1,4.1v4.2c0,2.2,1.8,4.1,4.1,4.1h16c2.2,0,4.1-1.8,4.1-4.1v-4.2
			c0-2.2-1.8-4.1-4.1-4.1H98.9z"/>
	</g>
	<g>
		<path fill="#48474E" d="M51.5,48.4H27.3V36.1h24.2V48.4z M31.2,44.5h16.4V40H31.2V44.5z"/>
	</g>
	<g>
		<rect x="8.2" y="62" fill="#48474E" width="158.7" height="3.9"/>
	</g>
	<g>
		<rect x="47.6" y="64" fill="#48474E" width="3.9" height="76.4"/>
	</g>
	<g>
		<rect x="27.3" y="64" fill="#48474E" width="3.9" height="76.4"/>
	</g>
	<g>
		<rect x="16.9" y="64" fill="#48474E" width="3.9" height="76.4"/>
	</g>
	<g>
		<rect x="37.4" y="64" fill="#48474E" width="3.9" height="76.4"/>
	</g>
	<g>
		<g>
			<path fill="#48474E" d="M113.7,107.8c-4.2,0-7.7-3.4-7.7-7.7c0-4.2,3.4-7.7,7.7-7.7c4.2,0,7.7,3.4,7.7,7.7
				C121.4,104.4,117.9,107.8,113.7,107.8z M113.7,94.4c-3.2,0-5.8,2.6-5.8,5.8c0,3.2,2.6,5.8,5.8,5.8c3.2,0,5.8-2.6,5.8-5.8
				C119.5,97,116.9,94.4,113.7,94.4z"/>
		</g>
	</g>
	<g>
		<path fill="#48474E" d="M118.3,106.3c0.3,1.1,0.5,2.3,0.5,3.5c0,7.2-5.9,13.1-13.1,13.1s-13.1-5.9-13.1-13.1
			c0-7.2,5.9-13.1,13.1-13.1c0.4,0,0.7,0,1.1,0c0.3-0.6,0.7-1.2,1.2-1.8c-0.7-0.1-1.5-0.2-2.3-0.2c-8.2,0-14.9,6.7-14.9,14.9
			s6.7,14.9,14.9,14.9s14.9-6.7,14.9-14.9c0-1.8-0.3-3.5-0.9-5C119.4,105.3,118.9,105.8,118.3,106.3z"/>
	</g>
</g>
</svg>
