<?xml version="1.0" encoding="utf-8"?>
<!-- Generator: Adobe Illustrator 18.1.1, SVG Export Plug-In . SVG Version: 6.00 Build 0)  -->
<!DOCTYPE svg PUBLIC "-//W3C//DTD SVG 1.1//EN" "http://www.w3.org/Graphics/SVG/1.1/DTD/svg11.dtd">
<svg version="1.1" id="Layer_1" xmlns="http://www.w3.org/2000/svg" xmlns:xlink="http://www.w3.org/1999/xlink" x="0px" y="0px"
	 width="730px" height="706px" viewBox="0 0 730 706" enable-background="new 0 0 730 706" xml:space="preserve">
<g>
	<path fill="#48474E" d="M434.8,579.6l-3-34.7C423.6,558.1,430.1,572.3,434.8,579.6z"/>
	<path fill="#48474E" d="M440.5,504.9l-24.6,24.7C431.3,527.3,437.9,513.2,440.5,504.9z"/>
	<path fill="#48474E" d="M393.2,527.9c0.6,0,1.2,0.1,1.8,0.1l-0.8-1.7L393.2,527.9z"/>
	<path fill="#48474E" d="M413.2,528.1l25.4-25.5C417.7,509.9,413.8,522.3,413.2,528.1z"/>
	<path fill="#48474E" d="M373.7,501l-19,29.2C369.3,524.8,372.9,509.6,373.7,501z"/>
	<path fill="#48474E" d="M395.1,560.6L371,535.4C372.9,550.8,386.9,557.8,395.1,560.6z"/>
	<path fill="#48474E" d="M351.7,529.3l19.6-30.2C352.5,510.5,351.2,523.5,351.7,529.3z"/>
	<path fill="#48474E" d="M372.7,532.7l24.8,26C390.7,538,378.5,533.6,372.7,532.7z"/>
	<path fill="#48474E" d="M434.7,543.9l3.1,35.8C445.5,559.3,438.7,548.2,434.7,543.9z"/>
	<path fill="#48474E" d="M567.9,435.9c-3.4-2.8-7.3-5-11.4-6.4l0,0.1c-0.1,0-0.1-0.1-0.2-0.1c-4.6-1.5-9.5-2.1-14.4-1.6
		c-5,0.5-9.7,1.9-14,4.3c2.5,0.8,5,1.8,7.3,3.1c6.8-0.3,13.7,1.9,19.4,6.5c5.4,4.5,8.7,10.5,9.9,16.9c6.5,6.1,10.4,14.1,11.6,22.4
		c4.9-8.5,6-18.5,3.4-27.5c0,0,0,0,0,0l0,0C577.5,446.9,573.7,440.7,567.9,435.9z"/>
	<path fill="#48474E" d="M471.9,579.6c0.5-0.3,1.1-0.5,1.6-0.8l0.2-1C473.1,578.4,472.5,579,471.9,579.6z"/>
	<path fill="#48474E" d="M477,570.9c1.2,1.5,2.4,3,3.5,4.4c1.3-0.7,2.5-1.3,3.8-2C481.9,572.6,479.5,571.8,477,570.9z"/>
	<path fill="#48474E" d="M458.5,549.7l36,1.1C474.9,540.6,463.2,546.3,458.5,549.7z"/>
	<path fill="#48474E" d="M494.1,553.9l-34.9-1.1C471.4,562.4,486.3,557.6,494.1,553.9z"/>
	<path fill="#48474E" d="M534.3,448.3c4-0.4,7.9-0.1,11.7,0.7c-1.8-2.7-4-5.1-6.6-7.2c-1.6-1.3-3.2-2.4-4.9-3.4c-0.2,0-0.3,0-0.5,0
		c-6.8,0.6-12.9,3.9-17.3,9.1c-2.7,3.3-4.6,7.2-5.4,11.3C517.5,452.8,525.5,449.1,534.3,448.3z"/>
	<polygon fill="#48474E" points="467.8,568.7 470,568.3 468.6,566.7 	"/>
	<path fill="#48474E" d="M301.5,537.6c-0.6,0-1.2,0.2-1.7,0.5c-1.6,1-2.1,3-1.1,4.6c0.5,0.8,1.2,1.3,2.1,1.5
		c0.9,0.2,1.8,0.1,2.5-0.4c1.6-1,2.1-3,1.1-4.6C303.7,538.2,302.6,537.6,301.5,537.6z"/>
	<path fill="#48474E" d="M293.2,542.9c-0.5-0.8-0.8-1.6-1.1-2.5c-0.7,2.8-0.9,5.8-0.5,8.7c7.1,5,16.7,5.7,24.6,1.1
		c1.5-4.4,1.1-9.4-1.5-13.7c-0.6-1-1.3-1.9-2-2.7c0.6,1.9,0.7,3.9,0.2,5.9c-0.7,2.8-2.4,5.2-4.9,6.7c-2.5,1.5-5.4,2-8.2,1.3
		S294.7,545.4,293.2,542.9z"/>
	<path fill="#48474E" d="M298.4,530.6c-3.3,2-4.6,6.1-3.2,9.6c0.2-1.9,1.3-3.6,3-4.7c1-0.6,2.2-0.9,3.3-0.9c2.1,0,4.2,1.1,5.4,3
		c1.1,1.8,1.2,3.9,0.4,5.7c1.3-1.1,2.3-2.6,2.7-4.3c0.5-2,0.2-4.1-0.9-5.9c-1.1-1.8-2.8-3-4.8-3.5
		C302.3,529.2,300.2,529.5,298.4,530.6z"/>
	<path fill="#48474E" d="M474.9,573.1c-0.6-0.8-1.3-1.5-2-2.3l-10.1,2l3.7-8.9c-3-3-6.2-5.9-9.7-8.8c-6.2-5-12.6-9.2-19.4-12.7
		c1.5,1.7,3.2,4.2,4.6,7.5c2.7,6.6,4.4,17.9-2.9,34.6v0c-0.4,0.8-1.1,1.4-2,1.5c-0.9,0.1-1.7-0.3-2.3-1c-4.6-6-18.2-26.9-3-45.2
		c-6.9-3-14-5.3-21.4-6.8l-0.2,0l0,0c-0.2,0-0.4-0.1-0.6-0.1c-3.4-0.7-6.9-1.2-10.5-1.5l-11.3-0.2l0.2-0.4c-3.3,0-6.6,0.1-10,0.4
		c1.3,0.5,2.6,1,4,1.8c6.2,3.4,14.7,11.2,19.4,28.8c0.2,0.9,0,1.8-0.6,2.4c-0.6,0.6-1.5,0.9-2.4,0.7c-7.2-1.8-30.4-9.4-30.6-32.5
		c-7.4,1.1-15,2.9-22.8,5.2c4.5,2.4,11,7.3,12.9,17.1c0.1,0,0.2,0,0.2,0c1.8,0.2,3.4,1.1,4.5,2.6c1.1,1.4,1.6,3.2,1.4,5
		c-0.5,3.7-3.9,6.4-7.6,5.9c-3.7-0.5-6.4-3.9-5.9-7.6c0.2-1.8,1.1-3.4,2.6-4.5c0.6-0.4,1.2-0.8,1.8-1c-2.3-11.2-11.1-15.1-14.2-16.1
		c-0.5,0.2-1,0.3-1.5,0.5c2.9,10.8-1.5,22.7-11.5,28.8c-3.7,2.2-7.6,3.4-11.6,3.7c-12.3,7.6-28.5,4.1-36.8-8
		c-2.4-1.9-4.4-4.2-6.1-6.8c-2.7-4.4-4.1-9.4-4-14.4c0,0,0-0.1,0-0.1c-0.4,0-0.9,0-1.5,0.1l0,0.1c-1,17.9-14.8,25.8-24.9,29.2
		c29.9,16.7,63.6,27.5,99.4,30.7c3.7-8,9.8-13.9,12.7-16.5l0,0c0.7-0.6,1.6-0.8,2.4-0.5c0.8,0.3,1.5,1,1.6,1.9
		c1.3,6.2,1.7,11.5,1.4,16.1c1.5,0,3,0.1,4.6,0.1c36,0,70.2-7.6,101.1-21.3C468.2,578.9,471,575.8,474.9,573.1z"/>
	<path fill="#48474E" d="M327.5,527.3c-6.9-4.9-16.3-5.7-24.2-1.4c5.6,0.7,10.9,3.9,14.1,9.1c2.4,3.9,3.2,8.4,2.6,12.6
		C325.8,542.5,328.5,534.8,327.5,527.3z"/>
	<path fill="#48474E" d="M292.6,553.2c0.5,1.6,1.2,3.1,2.1,4.6c0.6,1.1,1.4,2,2.1,3c4.1,1,8.6,0.5,12.5-1.9c1.9-1.1,3.4-2.6,4.7-4.3
		C306.9,557.3,299.1,556.7,292.6,553.2z"/>
	<path fill="#48474E" d="M272.7,538.1c-1.2,5.8-0.1,12,3.1,17.2c4.7,7.7,13.5,11.9,22.3,10.8c-1-0.8-2-1.7-2.9-2.7
		c-4.3-1.3-8.2-4.2-10.8-8.4c-2.4-4-3.2-8.5-2.6-12.8c-2.6-5-3.3-10.6-2.5-15.8C276,529.5,273.7,533.5,272.7,538.1z"/>
	<path fill="#48474E" d="M285,541.8c0.1,0.2,0.2,0.4,0.4,0.6c0.9,1.5,1.9,2.8,3.1,4c-0.1-5.6,1.7-11.2,5.1-15.8
		c-0.4,0.2-0.7,0.4-1.1,0.6C288.5,533.6,285.9,537.5,285,541.8z"/>
	<path fill="#48474E" d="M324.3,513.5c1,1.1,1.9,2.3,2.6,3.6c1.7,2.7,2.7,5.6,3.3,8.6c2.4,1.9,4.4,4.2,6.1,6.9c0,0,0.1,0.1,0.1,0.1
		c-0.4-4.3-1.9-8.5-4.4-12.1C329.9,517.6,327.3,515.2,324.3,513.5z"/>
	<path fill="#48474E" d="M304.8,507.7c-4,0-8.1,1.1-11.8,3.3c-9.2,5.6-13.1,16.8-9.8,26.6c1.5-3.6,4.1-6.8,7.7-9
		c2.2-1.3,4.5-2.2,6.9-2.6c0.9-0.8,1.9-1.5,3-2.1c8.1-4.9,17.9-4.9,25.7-0.7c-0.5-1.6-1.2-3.1-2.1-4.6
		C320.1,511.6,312.5,507.7,304.8,507.7z"/>
	<path fill="#48474E" d="M272.1,530.9c2-3.7,4.8-6.8,8.4-9.1c0.8-2.4,2-4.6,3.5-6.6C278,518.6,273.7,524.4,272.1,530.9z"/>
	<path fill="#48474E" d="M287,553.5c1.2,2,2.8,3.6,4.6,4.9c-1.3-2.4-2.2-5-2.7-7.6c-1.5-1.2-2.9-2.6-4.2-4.1
		C285,549,285.7,551.4,287,553.5z"/>
	<path fill="#48474E" d="M354.3,563.6c0.6,0.8,1.5,1.3,2.5,1.4c2.1,0.3,4-1.2,4.3-3.3c0.1-1-0.1-2-0.8-2.8c-0.6-0.8-1.5-1.3-2.5-1.4
		c-0.2,0-0.3,0-0.5,0c-1.9,0-3.5,1.4-3.8,3.3C353.4,561.8,353.7,562.8,354.3,563.6z"/>
	<path fill="#48474E" d="M326.1,565.4c10.8-6.5,14.2-20.6,7.6-31.4c-0.9-1.5-1.9-2.8-3.1-4c0.1,8.7-4.1,17.2-11.9,22.2
		c-1.5,3.7-4.2,7-7.8,9.2c-3.2,2-6.8,2.8-10.3,2.8C307.9,569.6,318,570.4,326.1,565.4z"/>
	<path fill="#48474E" d="M309.8,571.4c-2.9-0.5-5.6-1.5-8.2-2.9c-4.7,1.2-9.5,1-13.9-0.4C294.1,572.7,302.4,574,309.8,571.4z"/>
	<path fill="#48474E" d="M491.5,136.9c-2.5,0.9-3.9,3.6-3,6.2c0.9,2.5,3.6,3.9,6.2,3c2.3-0.8,3.6-3.1,3.2-5.4
		C495.8,139.4,493.7,138.1,491.5,136.9C491.6,136.9,491.6,136.9,491.5,136.9z"/>
	<path fill="#48474E" d="M443.6,130.6c-0.3,0.6-0.5,1.1-0.8,1.7l1.9,0.1L443.6,130.6z"/>
	<path fill="#48474E" d="M559.6,207.1c-1.3-2.4-2.2-5-2.7-7.5c-1.5-1.2-2.9-2.6-4.2-4.1c0.2,2.3,1,4.6,2.3,6.8
		C556.2,204.3,557.8,205.9,559.6,207.1z"/>
	<path fill="#48474E" d="M553.3,191.1c0.9,1.5,1.9,2.8,3.1,4c0-1.2,0.1-2.3,0.2-3.5c-1-1.2-2-2.3-3-3.5c-0.3,0.8-0.5,1.5-0.7,2.3
		C553.1,190.7,553.2,190.9,553.3,191.1z"/>
	<path fill="#48474E" d="M443.8,115.2c0.7,3.2,0.7,5.9,0.6,7.9c1.3-2.1,2.7-4.2,4.4-6.2C447.1,116.3,445.5,115.7,443.8,115.2z"/>
	<path fill="#48474E" d="M192.2,171.6c-1.8,1.7-3.6,3.5-5.4,5.3l24.9-1.2c-2.7-1.9-7.5-4.5-14.7-4.5
		C195.5,171.3,193.9,171.4,192.2,171.6z"/>
	<path fill="#48474E" d="M438.5,123.6l-8.4-12.5c-2.3-0.6-4.7-1.2-7-1.8C426,115.2,430.7,120.8,438.5,123.6z"/>
	<path fill="#48474E" d="M441.5,122.6c0.2-2.1,0.1-5-0.9-8.5c-2-0.6-4-1.2-6-1.8L441.5,122.6z"/>
	<path fill="#48474E" d="M568.6,213.1c1.9,1.4,4.1,2.5,6.3,3.3c-0.8-1.2-1.6-2.4-2.4-3.6C571.3,213,569.9,213.1,568.6,213.1z"/>
	<path fill="#48474E" d="M600.6,267.7c0.7,4.1,2,9.2,4.5,13.8C603.7,276.9,602.2,272.3,600.6,267.7z"/>
	<path fill="#48474E" d="M566.1,214.9c-1-0.8-2-1.7-2.9-2.7c-4.3-1.3-8.2-4.2-10.8-8.4c-2.4-4-3.2-8.5-2.6-12.8
		c-1.6-3.2-2.6-6.6-2.8-10.1c-0.8-0.9-1.7-1.8-2.5-2.6c-1.9,2.5-3.2,5.4-3.9,8.5c-1.2,5.8-0.1,12,3.1,17.2
		C548.5,211.8,557.3,216,566.1,214.9z"/>
	<path fill="#48474E" d="M598.7,438.2l-6.6-34.2C589.6,412.3,587.2,427.7,598.7,438.2z"/>
	<path fill="#48474E" d="M564.9,209.6c1.9,0.5,3.8,0.6,5.7,0.4c-1.3-1.9-2.7-3.8-4-5.6c-2.1-0.5-4.1-1.3-6-2.3
		c0.5,1.6,1.2,3.1,2.1,4.6C563.4,207.7,564.1,208.6,564.9,209.6z"/>
	<path fill="#48474E" d="M563.4,200.1c-1.3-1.7-2.6-3.3-3.9-5c0,0.9,0.1,1.9,0.2,2.8C560.8,198.7,562.1,199.5,563.4,200.1z"/>
	<path fill="#48474E" d="M524.5,434.4c-2.4,1.8-4.6,3.8-6.6,6.2c-1.3,1.6-2.4,3.2-3.4,4.9c4.1-4.9,9.5-8.1,15.3-9.5
		C528,435.4,526.3,434.8,524.5,434.4z"/>
	<path fill="#48474E" d="M551.4,185.7c-0.2-0.3-0.5-0.6-0.7-0.8c0.1,0.5,0.3,1,0.4,1.5C551.2,186.2,551.3,185.9,551.4,185.7z"/>
	<path fill="#48474E" d="M541.6,175.4c-0.6,1.4-1.2,2.9-1.5,4.4c0.7-1.3,1.5-2.5,2.3-3.6C542.1,175.9,541.9,175.6,541.6,175.4z"/>
	<path fill="#48474E" d="M528.1,467.6c-4.5,5.4-3.7,13.4,1.7,17.9c2.6,2.2,5.9,3.2,9.3,2.9c3.4-0.3,6.4-1.9,8.6-4.5
		c4.5-5.4,3.7-13.4-1.7-17.9c-0.4-0.3-0.7-0.6-1.1-0.8c0.8,1.2,1.2,2.5,1.4,4c0.2,2.4-0.5,4.7-2,6.5c-3.1,3.8-8.7,4.3-12.5,1.2
		c-1.8-1.5-3-3.6-3.2-6c-0.1-1.5,0.1-3.1,0.7-4.4C528.9,466.8,528.5,467.2,528.1,467.6z"/>
	<path fill="#48474E" d="M544,491.8c0.2-0.2,0.4-0.4,0.5-0.7c-8.9,2.7-18.8,1-26.5-5.4c-0.5-0.4-1-0.9-1.5-1.3
		c1.7,2.3,3.7,4.4,5.9,6.2c4.4,3.6,9.5,6.1,14.9,7.3C539.8,496.3,542,494.2,544,491.8z"/>
	<path fill="#48474E" d="M502.4,490c0.4,4.7,1.7,9.1,3.8,13.1c9.2,2.8,19.2,1.7,27.7-2.9c-4.8-1.4-9.3-3.8-13.3-7.2
		c-7.4-6.1-12.2-14.6-13.5-24.1C503.4,475.2,501.7,482.6,502.4,490z"/>
	<path fill="#48474E" d="M595,403.1l6.4,33.1c1.1-3,2.1-6.1,3-9.2C604.3,420.8,602.1,412.7,595,403.1z"/>
	<path fill="#48474E" d="M556,480.1c4.4-5.3,6.4-11.9,5.8-18.7c0-0.4-0.1-0.8-0.1-1.2c-0.4-0.3-0.7-0.6-1.1-0.9
		c-2.6-2.1-5.4-3.9-8.4-5.2c3.9,9.4,4.1,20.1,0.1,29.6C553.7,482.7,554.9,481.5,556,480.1z"/>
	<path fill="#48474E" d="M552.7,444.2c-3.6-3-7.9-4.9-12.5-5.6c0.4,0.3,0.7,0.6,1.1,0.9c3.7,3.1,6.7,6.7,9,10.7
		c3.6,1.2,7.1,3,10.3,5.3C559,451.1,556.3,447.2,552.7,444.2z"/>
	<path fill="#48474E" d="M510.9,466.2c0.6,6.8,3.9,12.9,9.1,17.3c2.4,2,5.2,3.5,8.1,4.5c-0.1-0.1-0.1-0.1-0.2-0.2
		c-6.7-5.5-7.6-15.5-2.1-22.1c2.7-3.2,6.5-5.2,10.6-5.6c4.2-0.4,8.3,0.9,11.5,3.6c1.9,1.5,3.3,3.4,4.2,5.5c0-5.7-1.4-11.4-4-16.5
		c-4.3-1.3-9-1.8-13.6-1.4c-9.3,0.9-17.7,5.2-23.8,12.3C510.8,464.5,510.8,465.3,510.9,466.2z"/>
	<path fill="#48474E" d="M542,473.7c1-1.2,1.5-2.7,1.3-4.3c-0.1-1.6-0.9-3-2.1-4c-1.2-1-2.7-1.5-4.3-1.3c-1.6,0.1-3,0.9-4,2.1
		c-1,1.2-1.5,2.7-1.3,4.3s0.9,3,2.1,4C536.2,476.6,539.9,476.2,542,473.7z"/>
	<path fill="#48474E" d="M548.5,498.7c9.5-0.9,18-5.4,24.1-12.7c0.3-0.3,0.5-0.6,0.8-1c-0.4-7.7-3.2-15.4-8.5-21.5
		c0.1,6.5-2.1,13.1-6.6,18.5c-2.5,3-5.4,5.3-8.7,7c-1,1.6-2.1,3.2-3.3,4.7c-1.5,1.8-3.2,3.5-4.9,4.9
		C543.8,498.9,546.1,499,548.5,498.7z"/>
	<path fill="#48474E" d="M576.4,486c0,0.5,0,0.9,0,1.4c3.2-5,6.1-10,9-15.2c-0.1-3.1-0.6-6.2-1.6-9.2
		C583.9,471.3,581.3,479.3,576.4,486z"/>
	<path fill="#48474E" d="M593.4,450.4c-2.7,2.2-5.6,4.5-8.6,6.7c1.5,3.3,2.5,6.8,3.1,10.3c2.6-5,4.9-10,7.2-15.2
		C594.2,451.4,593.7,450.8,593.4,450.4z"/>
	<path fill="#48474E" d="M552.4,519.2c7.4-8.3,14.2-17.1,20.5-26.4c0.2-1,0.3-2,0.4-3c-9.3,9.8-22.7,13.8-35.2,11.4
		c-8.7,5.8-19.5,7.8-29.6,5.6c1.8,2.7,4.1,5.1,6.7,7.3C525.9,523,540.4,524.5,552.4,519.2z"/>
	<path fill="#48474E" d="M503.3,515.2c5.9,4.2,12.6,6.6,19.6,7.1c-3.4-1.4-6.7-3.4-9.6-5.9c-3.7-3.1-6.7-6.7-9-10.8
		c-4.3-1.5-8.5-3.7-12.2-6.8c-0.9-0.8-1.8-1.6-2.6-2.4C491.9,503.9,496.7,510.4,503.3,515.2z"/>
	<path fill="#48474E" d="M507.7,431.6c1.8-0.4,3.6-0.7,5.4-0.9c3.7-0.3,7.3-0.2,10.8,0.5c7.4-4.9,16.1-7,24.7-6.3
		c-4.9-2.2-10.2-3.3-15.4-3.3C523.9,421.6,514.7,425,507.7,431.6z"/>
	<path fill="#48474E" d="M503.6,436.1L503.6,436.1c-5.4,2.1-10.4,5.6-14.3,10.3c-11.1,13.4-10.7,32.5,0,45.4
		c0.2,0.1,0.2,0.1,0.3,0.1l-0.1,0.1c1.3,1.6,2.8,3.1,4.5,4.5c2.6,2.2,5.4,3.9,8.3,5.2c-1.5-3.6-2.5-7.4-2.8-11.4
		c-0.9-9.4,1.7-18.7,7.2-26.3c-0.2-9.2,2.9-18.2,8.9-25.3c1.5-1.8,3.1-3.5,4.9-4.9C514.8,433.2,509,433.9,503.6,436.1
		C503.6,436,503.6,436.1,503.6,436.1z"/>
	<path fill="#48474E" d="M577.5,220.3c0-0.1-0.1-0.1-0.1-0.2c-2.7-0.5-5.3-1.5-7.7-2.8c-4.7,1.2-9.5,1-13.9-0.4
		C562,221.4,570.1,222.7,577.5,220.3z"/>
	<path fill="#48474E" d="M181.6,295.9l30.1-19.7c-0.6-0.1-1.3-0.1-2-0.1C203.3,276.1,191.9,278.9,181.6,295.9z"/>
	<path fill="#48474E" d="M238.1,200.7c1.7-0.5,3.5-0.8,5.4-1c3.6-0.4,7.3-0.4,10.8,0.2c7.2-5.1,15.9-7.5,24.6-7
		c-4.6-1.9-9.5-2.8-14.4-2.8C254.7,190.1,245.2,193.7,238.1,200.7z"/>
	<path fill="#48474E" d="M212.7,279.2l-29.2,19.1C192.2,297.4,207.4,293.7,212.7,279.2z"/>
	<path fill="#48474E" d="M234.1,205.3L234.1,205.3c-5.5,2.3-10.3,5.9-14,10.7c-12.1,15.4-9.4,37.8,6.1,49.9c2.7,2.1,5.5,3.7,8.5,4.9
		c-5.4-12-4.5-26.3,3.3-37.8c-0.4-9.2,2.4-18.2,8.2-25.6c1.5-1.9,3.1-3.6,4.8-5.1c-2.3-0.2-4.7-0.1-7.1,0.2
		c-3.4,0.4-6.6,1.3-9.6,2.6C234.2,205.3,234.2,205.3,234.1,205.3z"/>
	<path fill="#48474E" d="M211,178.8l-27.2,1.3c-0.8,0.8-1.5,1.6-2.3,2.5C189.7,185.3,201.3,186.7,211,178.8z"/>
	<path fill="#48474E" d="M238.8,272.3c9.3,2.5,19.2,1.2,27.5-3.7c-4.9-1.3-9.4-3.6-13.5-6.8c-7.6-5.9-12.6-14.3-14.2-23.7
		C232.7,248.9,232.9,261.9,238.8,272.3z"/>
	<path fill="#48474E" d="M221.7,266.1c5.4,14.5,19,24.3,34.1,24.9c-3.5-1.4-6.7-3.2-9.7-5.6c-3.8-3-6.9-6.6-9.3-10.5
		c-4.4-1.3-8.6-3.5-12.4-6.5C223.4,267.6,222.5,266.9,221.7,266.1z"/>
	<path fill="#48474E" d="M217.1,407.8l-35.4,6.1C202.7,419.9,213.2,412.1,217.1,407.8z"/>
	<path fill="#48474E" d="M184.2,369L184.2,369c-0.9,0.2-1.7-0.1-2.4-0.7c-0.6-0.7-0.8-1.6-0.6-2.4c5.1-17.5,13.7-25.1,20-28.4
		c4.8-2.5,9-3,11.2-3c-1.3-6.4-2-13.3-2.2-20.7c-5.8,5.4-21.9,17.4-51.6,20.6c0.9,6.1-0.9,11.9-5.2,16.9c-3.8,4.4-8.7,7-10.6,8
		c-0.7,0.3-1.5,0.3-2.1-0.1c-0.6-0.4-1-1.2-1-1.9c0-0.9,0.1-1.7,0.2-2.6c-0.2,0.1-0.3,0.2-0.5,0.2c-9.7,4.8-19.7,4.7-24.9,0.5
		c0.4,40.5,10.4,78.7,27.8,112.4c3.1-0.7,6.2-1.5,9.4-2.5c3.2-1,6.3-2.1,9.4-3.4l-0.3-0.3l5.1-1.7c2.5-1.1,4.9-2.4,7.2-3.7
		c-2.3,0.3-5.3,0.4-8.8-0.3c-7-1.4-17.4-6.3-27.1-21.7c-0.5-0.8-0.5-1.7-0.1-2.5c0.4-0.8,1.2-1.3,2.1-1.3
		c7.5-0.4,32.5-0.1,39.3,22.7c6.3-4,12.2-8.7,17.5-14l0.1-0.2l0,0c0.2-0.2,0.3-0.3,0.5-0.5c7.2-7.3,13.6-15.7,19-25.2
		c-1.1,0.8-2.3,1.6-3.7,2.3c-6.3,3.3-17.5,5.9-34.7,0.1v0c-0.8-0.3-1.5-1-1.6-1.9c-0.2-0.9,0.1-1.7,0.8-2.3c5.5-5,24.8-20,44.1-7.3
		c1.5-3.2,2.9-6.5,4.3-9.9c-4.6,1.4-13.9,2.8-22.8-4.2c-0.1,0-0.1,0.1-0.2,0.1c-1.5,1-3.3,1.3-5.1,1c-1.8-0.4-3.3-1.4-4.3-2.9h0
		c-2.1-3.1-1.2-7.4,2-9.4c3.1-2.1,7.4-1.2,9.4,2c1.4,2.2,1.4,4.9,0.2,7.1c10,7.9,20.5,3.5,22.1,2.7c1.6-4.5,3.1-9.2,4.4-14.1
		c-0.3-0.5-0.6-0.9-1-1.4l-11-0.3l5.8-8.2c-3.7-6.7-7-14.4-9.5-22.9C210.3,361.6,190.7,367.6,184.2,369z"/>
	<path fill="#48474E" d="M197.1,388c1,0.2,2,0,2.9-0.5c1.8-1.2,2.3-3.5,1.1-5.3c-0.6-0.9-1.4-1.4-2.4-1.6c-1-0.2-2,0-2.9,0.5
		c-1.8,1.2-2.3,3.5-1.1,5.3h0C195.2,387.2,196.1,387.8,197.1,388z"/>
	<path fill="#48474E" d="M181.5,410.9l34.4-6c-4-2-7.9-2.8-11.7-2.8C194.8,402.1,186.4,407.1,181.5,410.9z"/>
	<path fill="#48474E" d="M251.9,252.3c2.5,1.9,5.3,3.4,8.2,4.3c-0.1,0-0.1-0.1-0.2-0.2c-3.3-2.6-5.4-6.3-5.9-10.5s0.6-8.3,3.2-11.6
		c2.6-3.3,6.3-5.4,10.5-5.9c4.2-0.5,8.3,0.6,11.6,3.2c1.9,1.5,3.4,3.3,4.4,5.4c0-1.1-0.1-2.2-0.3-3.4c-0.6-4.6-2-9-4.2-13
		c-13.3-3.6-28,0.7-37.1,12C242.3,240.1,245.6,247.4,251.9,252.3z"/>
	<path fill="#48474E" d="M231.7,392.3l14.1,33.1C246.8,403.3,236.8,395.1,231.7,392.3z"/>
	<polygon fill="#48474E" points="225.3,370 224.1,371.8 226.3,371.8 	"/>
	<path fill="#48474E" d="M242.9,426.3l-13.7-32.1C225.6,409.4,236.2,420.8,242.9,426.3z"/>
	<path fill="#48474E" d="M179.3,184.9c-7.3,8.1-14.2,16.7-20.4,25.8c6.2,2.4,11.7,7.1,14.9,13.6c0.6,0.5,1.2,1.1,1.8,1.7
		c6.5,6.8,8.4,16.3,6.1,24.8c0.5,14.9-11.1,27.5-26,28.3c-3.7,1.9-7.7,2.9-12,2.9c-0.3,0-0.5,0-0.8,0c-6-0.2-11.7-2.4-16.2-6.3
		c-5.3,16.3-9,33.3-10.8,50.9c0.5-0.3,0.9-0.5,1.4-0.8c3.5-2.6,8.6-4.5,14.4-4.9c-0.4-0.8-0.8-1.4-1-1.9l0,0
		c-0.3-0.7-0.3-1.5,0.1-2.1c0.4-0.6,1.2-1,1.9-1c19.6,1,24.3,11.5,25.4,15.5c11-1.2,20.3-3.7,28-6.7l1.6-10.5l7.2,6.6
		c7.6-4,12.7-8.2,15.3-11.2c0.1-7.5,0.9-15.4,2.5-23.8c-8.8,14-27.2,15.6-33.5,15.7c-0.9,0-1.7-0.4-2.2-1.2
		c-0.5-0.8-0.5-1.7-0.1-2.5c8.6-16.1,18.6-21.7,25.4-23.7c6.7-1.9,11.7-0.7,13-0.3c0.8-2.9,1.6-5.8,2.6-8.8
		c-0.4-1.3-0.8-2.7-1.1-4.1c-10-13.6-10.2-32.8,0.7-46.7c3.7-4.7,8.3-8.4,13.5-10.9c-1-2-2.1-3.9-3.2-5.7
		c-3.1-0.9-12.7-2.6-20.9,5.5c1.4,2,1.8,4.7,0.6,7.1c-1.7,3.4-5.8,4.7-9.1,3.1c-3.4-1.7-4.7-5.8-3.1-9.1c0.8-1.6,2.2-2.8,3.9-3.4
		c1.7-0.6,3.6-0.4,5.2,0.4c0.1,0,0.1,0.1,0.2,0.1c7.4-7.5,16.1-7.7,21.1-7c-3.3-5.5-6.8-10.6-10.5-15.4
		C203.8,190.7,189,188.5,179.3,184.9z"/>
	<path fill="#48474E" d="M198.5,444l7.1,35.3C211,457.9,202.9,447.8,198.5,444z"/>
	<path fill="#48474E" d="M203.4,203.7c-0.5-0.3-1.1-0.4-1.7-0.4c-0.4,0-0.8,0.1-1.2,0.2c-1,0.3-1.7,1-2.2,1.9
		c-0.5,0.9-0.5,1.9-0.2,2.9c0.3,1,1,1.7,1.9,2.2h0c1.9,0.9,4.2,0.2,5.1-1.7C206.1,206.9,205.3,204.6,203.4,203.7z"/>
	<path fill="#48474E" d="M298.5,203.4c-3.6-2.8-7.5-4.8-11.6-6l0,0c0,0-0.1-0.1-0.1-0.1c-9.5-2.8-19.8-1.6-28.4,3.5
		c2.5,0.7,5,1.7,7.3,2.9c6.8-0.5,13.8,1.5,19.5,6c5.4,4.2,9,10,10.4,16.6c6.6,6,10.7,13.8,12.2,22.1c3.5-6.5,4.9-13.8,4-21.3
		c-0.3-2.2-0.7-4.3-1.3-6.3c0,0,0-0.1-0.1-0.1l0,0C308.3,213.9,304.2,207.9,298.5,203.4z"/>
	<path fill="#48474E" d="M204.8,169.3c1.5,0.4,2.9,0.9,4.1,1.4c-2.4-2.6-4.8-5.1-7.4-7.5c-2,1.7-3.9,3.4-5.8,5.1
		C199.3,168.2,202.3,168.7,204.8,169.3z"/>
	<path fill="#48474E" d="M305.8,268.8c10.3-10.2,13.8-25.4,9.3-38.9c0.3,8.3-2,16.4-6.7,23.2C308.6,258.5,307.8,263.8,305.8,268.8z"
		/>
	<path fill="#48474E" d="M235.8,152.3l-6.6,35.4C233.6,183.8,241.6,173.6,235.8,152.3z"/>
	<path fill="#48474E" d="M226.4,186.3l6.4-34.3C227.4,158.9,219.5,172.3,226.4,186.3z"/>
	<path fill="#48474E" d="M265.4,242.9c2.6,2,6.3,1.5,8.3-1c1-1.2,1.4-2.8,1.2-4.3c-0.2-1.6-1-3-2.2-3.9c-1.1-0.8-2.4-1.2-3.6-1.2
		c-1.7,0-3.5,0.8-4.6,2.3C262.4,237.2,262.8,240.9,265.4,242.9z"/>
	<path fill="#48474E" d="M276.9,217.1c-1.9-2.6-4.2-5-6.9-7.1c-1.6-1.2-3.2-2.3-5-3.3c-6.7,0.7-13.1,4-17.6,9.7
		c-2.7,3.4-4.4,7.4-5.1,11.4C251.6,218.6,264.7,214.8,276.9,217.1z"/>
	<path fill="#48474E" d="M292.9,227.9c-0.4-0.3-0.7-0.6-1.1-0.9c-2.7-2.1-5.5-3.7-8.5-4.9c1.6,3.5,2.7,7.3,3.1,11.3
		c0.8,6.3,0,12.5-2.2,18.3c1.3-1.1,2.5-2.3,3.5-3.7c4.2-5.4,6.1-12.1,5.2-18.8C293,228.7,292.9,228.3,292.9,227.9z"/>
	<path fill="#48474E" d="M248.5,253.3c1.8,2.2,3.8,4.3,6.1,6.1c4.5,3.5,9.6,5.9,15.1,6.9c2.4-1.8,4.5-3.9,6.5-6.4
		c0.2-0.2,0.3-0.4,0.5-0.7c-1.8,0.6-3.6,1-5.5,1.2c-7.6,0.9-15.1-1.2-21.1-5.9C249.5,254.2,249,253.8,248.5,253.3z"/>
	<path fill="#48474E" d="M280.8,266.7c9.4-1.1,17.9-5.9,23.7-13.4c0.3-0.3,0.5-0.7,0.7-1c-0.6-7.7-3.7-15.2-9.1-21.2
		c0.3,6.7-1.9,13.3-6.1,18.6c-2.4,3-5.2,5.5-8.5,7.3c-0.9,1.6-2,3.2-3.2,4.7c-1.5,1.9-3.1,3.6-4.8,5.1
		C276.1,267,278.4,267,280.8,266.7z"/>
	<path fill="#48474E" d="M283.4,212c-3.8-3-8.2-4.7-12.6-5.2c0.4,0.3,0.7,0.6,1.1,0.8c3.8,3,6.9,6.5,9.3,10.5
		c3.6,1.1,7.1,2.8,10.4,5C290,218.8,287.2,215,283.4,212z"/>
	<path fill="#48474E" d="M255,203.1c-2.4,1.8-4.5,3.9-6.5,6.4c-1.2,1.6-2.3,3.3-3.3,5c4-5,9.3-8.4,15.1-9.9
		C258.6,203.9,256.8,203.4,255,203.1z"/>
	<path fill="#48474E" d="M259.6,236.2c-4.3,5.5-3.4,13.5,2.2,17.9c5.5,4.3,13.5,3.4,17.9-2.2c4.3-5.5,3.4-13.5-2.2-17.9
		c-0.4-0.3-0.7-0.5-1.1-0.8c0.8,1.2,1.3,2.5,1.5,3.9c0.3,2.4-0.4,4.7-1.8,6.5c-3,3.9-8.6,4.5-12.5,1.5c-3.2-2.5-4.2-6.8-2.7-10.4
		C260.3,235.3,259.9,235.7,259.6,236.2z"/>
	<path fill="#48474E" d="M274.1,290.3c9.4-1.1,17.9-5.9,23.7-13.4c4.6-5.9,7.1-12.9,7.5-19.9c-6.2,7-14.7,11.5-24.1,12.6
		c-3.6,0.4-7.3,0.4-10.8-0.2c-8.6,6-19.2,8.3-29.4,6.4c1.9,2.6,4.2,5,6.8,7.1C255.4,288.9,264.7,291.4,274.1,290.3z"/>
	<path fill="#48474E" d="M141.3,259.2c4.3,0.1,8.5-1.4,11.6-4.4c0.8-0.8,1.6-1.6,2.2-2.5c-1.7,1-3.7,1.5-5.8,1.5
		c-2.9-0.1-5.6-1.3-7.6-3.4c-1.5-1.5-2.4-3.4-2.8-5.5c-1.2,2.5-2.3,4.9-3.4,7.4c1,2.4,2.4,4.8,4.3,6.8
		C140.3,259.2,140.8,259.2,141.3,259.2z"/>
	<path fill="#48474E" d="M145.3,236.4c0.2,0,0.5,0,0.8,0c1.7,0,3.3,0.8,4.4,2c1.2,1.2,1.8,2.8,1.7,4.5s-0.8,3.3-2,4.4
		c-1.5,1.4-3.6,2-5.5,1.6c1.3,1.1,3,1.7,4.7,1.8c2.1,0.1,4.1-0.7,5.6-2.1c3.1-3,3.3-7.9,0.3-11.1
		C152.7,234.7,148.4,234.3,145.3,236.4z"/>
	<path fill="#48474E" d="M147.9,227.9c-0.5,0.9-1,1.7-1.5,2.6c2.7,0.3,5.4,1,7.9,2.2c-0.3-0.3-0.5-0.6-0.8-0.9
		C152,230.1,150,228.8,147.9,227.9z"/>
	<path fill="#48474E" d="M135.1,257.8c-0.4-0.6-0.7-1.2-1.1-1.8c-0.1,0.4-0.3,0.7-0.4,1.1C134.1,257.3,134.6,257.6,135.1,257.8z"/>
	<path fill="#48474E" d="M155,257c-3.2,3.1-7.4,4.9-11.8,5.2c3.7,2.8,8.2,4.3,12.9,4.5c2.9,0.1,5.8-0.4,8.5-1.4
		c3.4-7.8,2.2-17.2-3.6-23.9c0.1,0.7,0.1,1.5,0.1,2.2C160.9,248.7,158.7,253.4,155,257z"/>
	<path fill="#48474E" d="M148.1,245.1c0.6-0.6,1-1.4,1-2.3c0-0.9-0.3-1.7-0.9-2.4c-0.6-0.6-1.4-1-2.3-1c0,0-0.1,0-0.1,0
		c-0.9,0-1.7,0.3-2.3,0.9c-1.3,1.3-1.4,3.4-0.1,4.7C144.7,246.3,146.8,246.4,148.1,245.1z"/>
	<path fill="#48474E" d="M155.4,218c-0.3-0.2-0.7-0.5-1-0.7c-0.2,0.3-0.4,0.5-0.5,0.8C154.4,218.1,154.9,218,155.4,218z"/>
	<path fill="#48474E" d="M159.3,272.8c1.2-1.2,2.3-2.5,3.3-3.8c-2.1,0.5-4.3,0.7-6.5,0.6c-6.7-0.2-13-2.9-17.7-7.7
		c-2.1-0.4-4.1-1.1-6-2.1c-1.7,4.2-3.3,8.4-4.7,12.7c4.1,4,9.5,6.3,15.3,6.5C149.1,279.2,154.9,277,159.3,272.8z"/>
	<path fill="#48474E" d="M212.2,340.3L187.6,365C195.9,362.4,210,355.7,212.2,340.3z"/>
	<polygon fill="#48474E" points="189.6,322.4 191.5,321.7 190,320.2 	"/>
	<path fill="#48474E" d="M185.3,363.1l25.4-25.5C204.9,338.3,192.5,342.2,185.3,363.1z"/>
	<path fill="#48474E" d="M202.5,479.6l-6.8-34.2C189,459.4,197.1,472.8,202.5,479.6z"/>
	<path fill="#48474E" d="M173.4,228.1c-4.2-4.4-9.8-7-15.9-7.2c-1.9-0.1-3.8,0.1-5.7,0.6c-0.8,1.3-1.5,2.5-2.3,3.8
		c2.3,1,4.5,2.5,6.3,4.4c1.7,1.8,3.1,4,4,6.3c0.9,0.8,1.8,1.6,2.7,2.5c6.5,6.9,8.5,16.5,6,25c1.4-0.9,2.8-1.9,4-3
		C181.6,251.8,182,237.3,173.4,228.1z"/>
	<path fill="#48474E" d="M155.2,469.6l-6.7,9.4c0.9,1.6,1.9,3.2,2.9,4.8C154.9,478,155.4,472.8,155.2,469.6z"/>
	<path fill="#48474E" d="M177.5,259.3c-0.9,1.2-1.9,2.3-3,3.3c-2.3,2.2-4.9,3.9-7.7,5c-1.3,2.7-3.1,5.2-5.4,7.4c0,0-0.1,0.1-0.1,0.1
		C169,272.8,175,266.8,177.5,259.3z"/>
	<path fill="#48474E" d="M210.4,550.1c0.6,0.5,1.2,0.9,1.7,1.3c-0.5-1.1-1.1-2.2-1.7-3.3C210.5,548.8,210.5,549.5,210.4,550.1z"/>
	<path fill="#48474E" d="M144.8,472.4c0.7,1.3,1.4,2.5,2.1,3.8l5.4-7.6C149.4,469.5,146.9,470.8,144.8,472.4z"/>
	<path fill="#48474E" d="M264.2,546.6l-25.4,22.8c0.1,0.1,0.3,0.2,0.4,0.2C247.8,567.3,261.3,561.3,264.2,546.6z"/>
	<path fill="#48474E" d="M350.3,603l3.6-11.9c-2.7,2.7-6,6.7-8.4,11.6C347,602.9,348.7,603,350.3,603z"/>
	<path fill="#48474E" d="M200.4,526.8c-5.7-7.6-14-12.5-23.4-13.9c-1.7-0.2-3.4-0.4-5.1-0.4c10.7,12.9,22.6,24.7,35.6,35.2
		c0-1.5-0.1-3-0.3-4.5c0,0-0.1-0.1-0.1-0.1l0.1,0C206.3,537.3,204.1,531.7,200.4,526.8z"/>
	<path fill="#48474E" d="M143.6,433.3l30.5,16.8C167.7,436,152.3,433.5,143.6,433.3z"/>
	<path fill="#48474E" d="M173.4,453.2l-31.5-17.4C154.7,453.8,167.6,454.1,173.4,453.2z"/>
	<path fill="#48474E" d="M167.9,464.4l0.4-2.2l-1.6,0.5c-0.1,0.1-0.2,0.1-0.3,0.2L167.9,464.4z"/>
	<path fill="#48474E" d="M353.3,603.2c1.4,0.1,2.8,0.1,4.2,0.2c0.2-3.4,0-7.2-0.7-11.6L353.3,603.2z"/>
	<path fill="#48474E" d="M236.1,567.8C236.1,567.8,236.1,567.8,236.1,567.8l26.7-24C257,544.2,244.5,547.4,236.1,567.8z"/>
	<path fill="#48474E" d="M134.1,319.1c0.3,0.6,0.7,1.2,1.1,1.9l0.4,0.6c0.3,0.4,0.5,0.8,0.8,1.2c0.8,1.1,1.8,2.3,2.9,3.4l0,0
		l0.2,0.2l0,0c0.6,0.6,1.2,1.1,1.8,1.6l0,0l0.1,0.1l0,0c0.7,0.5,1.4,1,2.1,1.5c0,0,0,0,0,0c0.4,0.2,0.8,0.5,1.2,0.7l0,0l0,0
		c0.8,0.4,1.7,0.8,2.6,1.1l0,0l0,0l0,0c0.1,0,0.2,0.1,0.3,0.1c0.8,0.2,1.6,0.4,2.5,0.5l0,0l0.1,0l0,0c1,0.1,2,0.1,3.1,0.1l0.6,0
		c0.1,0,0.1,0,0.2,0c0.3-0.1,0.6-0.2,0.8-0.3C154.1,328.4,149.9,320.4,134.1,319.1z"/>
	<path fill="#48474E" d="M115,351.5l0.1,0.2c3.5,4.8,13.7,5.2,23.1,0.6c0.8-0.4,1.6-0.8,2.3-1.3c0.3-1.6,0.7-3,1.1-4.3
		c-2.5,0.9-5,1.4-7.5,1.4c-4.3,0.1-8.4-0.6-11.9-1.9c-1.5-0.6-2.8-1.2-4-2c-1.1-0.7-2-1.4-2.8-2.2c-0.3,0.5-0.5,1-0.7,1.4
		c-0.1,2.5-0.2,5-0.2,7.5C114.7,351,114.8,351.2,115,351.5z"/>
	<path fill="#48474E" d="M125.3,326c-2.2,0.6-4.3,1.4-6.2,2.4c-2.4,1.9-3.8,4.1-3.8,6.5c0,1.1,0.4,2.2,1,3.2l0.2,0.3
		c2.8,4.1,9.9,6.7,17.5,6.5c3-0.1,6.2-0.9,9.1-2.4c1.7-3.6,3.9-6,6-7.7c-3.7-0.6-6.9-2.3-9.5-4.4c-0.3-0.3-0.7-0.6-1-0.9
		c-0.5-0.5-1.1-1-1.6-1.5c-1-1-1.9-2.1-2.7-3.1C131.3,324.9,128.2,325.2,125.3,326z"/>
	<polygon fill="#48474E" points="143.6,329.6 143.6,329.6 143.6,329.6 	"/>
	<path fill="#48474E" d="M160.2,218.2c2.5,0.3,4.9,1,7.2,2.1c-2.7-3.1-6.2-5.5-10.2-6.9c-0.1,0-0.1,0-0.2-0.1c-0.3,0.5-0.7,1-1,1.6
		C157.5,215.8,158.9,216.9,160.2,218.2z"/>
	<path fill="#48474E" d="M143.4,352l-0.1,0.6c-0.2,1-0.3,2.1-0.4,3.3c4.8-2.6,14.6-9.5,12.9-21c-0.2,0-0.5,0.1-0.7,0.1l-0.7,0.3
		c-0.2,0.1-0.4,0.2-0.6,0.3l0,0c-0.2,0.1-0.3,0.2-0.5,0.3l0,0c-0.1,0-0.1,0.1-0.2,0.1l0,0c0,0,0,0,0,0s0,0,0,0
		c-0.1,0-0.2,0.1-0.3,0.2c-0.1,0-0.1,0.1-0.2,0.1c0,0,0,0,0,0c0,0,0,0,0,0l0,0c0,0-0.1,0-0.1,0.1l-0.1,0l0,0c0,0,0,0,0,0
		c-0.1,0.1-0.2,0.1-0.3,0.2c-0.2,0.1-0.3,0.2-0.5,0.3l0,0c-0.2,0.1-0.4,0.3-0.6,0.4l0,0c-0.1,0.1-0.2,0.1-0.2,0.2l0,0c0,0,0,0,0,0
		c0,0,0,0,0,0c-0.1,0.1-0.1,0.1-0.2,0.2c-0.1,0.1-0.1,0.1-0.2,0.2c0,0,0,0,0,0c0,0,0,0,0,0l0,0c-0.1,0.1-0.2,0.1-0.2,0.2l0,0
		c0,0,0,0,0,0c0,0,0,0,0,0c-0.2,0.2-0.4,0.3-0.6,0.5l0,0c0,0-0.1,0.1-0.1,0.1l0,0c-0.2,0.2-0.4,0.4-0.6,0.7l0,0
		c-0.1,0.1-0.2,0.2-0.2,0.3l0,0c-0.1,0.2-0.3,0.4-0.4,0.5l0,0c-0.1,0.1-0.2,0.2-0.2,0.3l0,0c-0.1,0.2-0.3,0.4-0.4,0.6c0,0,0,0,0,0.1
		l0,0c-0.1,0.1-0.1,0.2-0.2,0.2l0,0c-0.2,0.3-0.4,0.6-0.6,1l0,0c-0.1,0.1-0.1,0.2-0.2,0.3l0,0c-0.1,0.3-0.3,0.5-0.4,0.8l0,0
		c-0.1,0.1-0.1,0.3-0.2,0.4l0,0l0,0C144.7,346.3,143.9,349,143.4,352z"/>
	<path fill="#48474E" d="M214.7,496.6c-4.3,0-7.7,3.5-7.7,7.7c0,4.3,3.5,7.7,7.7,7.7s7.7-3.5,7.7-7.7
		C222.4,500.1,218.9,496.6,214.7,496.6z"/>
	<path fill="#48474E" d="M449.5,404.1l30.1-19.7C457.7,387.2,451.3,398.6,449.5,404.1z"/>
	<path fill="#48474E" d="M411.8,384.3l-18,29.9C408.2,408.3,411.3,393,411.8,384.3z"/>
	<path fill="#48474E" d="M424,411l27.1,23.7C442.5,414.4,429.9,411.3,424,411z"/>
	<path fill="#48474E" d="M449,436.8l-26.3-22.9C426,429,440.5,434.7,449,436.8z"/>
	<path fill="#48474E" d="M355.9,434.9l-9.8-34.6C342.3,421.8,351.1,431.4,355.9,434.9z"/>
	<path fill="#48474E" d="M390.8,413.4l18.6-30.8C390.9,394.6,390,407.6,390.8,413.4z"/>
	<path fill="#48474E" d="M374,431.2l32.8,14.9C392.6,429.1,379.6,429.8,374,431.2z"/>
	<path fill="#48474E" d="M405.2,448.7l-31.8-14.4C381,447.9,396.6,449.2,405.2,448.7z"/>
	<polygon fill="#48474E" points="225.8,444.3 224.6,446.1 226.8,446.1 	"/>
	<polygon fill="#48474E" points="221.5,523.9 220.4,522.2 219.3,524.1 	"/>
	<path fill="#48474E" d="M481,387l-29.2,19.1C467.4,407.1,476.8,394.6,481,387z"/>
	<path fill="#48474E" d="M235.7,461.2l-0.1-0.6c0-0.1,0-0.1-0.1-0.2c-0.2-0.3-0.3-0.5-0.4-0.8c0,0,0,0-0.1,0l-0.1,0.1c0,0,0,0,0,0
		c-3.2,1.8-10,7.6-8.4,22.9c0.5-0.4,1.1-0.9,1.7-1.4l0.5-0.5c0.3-0.3,0.6-0.6,0.9-0.9l0.1-0.1c0.9-1,1.9-2.2,2.8-3.5l0,0l0.2-0.2
		l0,0c0.5-0.7,0.9-1.4,1.3-2.1l0,0l0.1-0.2l0,0c0.4-0.8,0.8-1.6,1.1-2.4c0,0,0,0,0,0l0,0l0,0c0.2-0.4,0.3-0.8,0.4-1.2l0,0l0-0.1l0,0
		c0.3-0.9,0.5-1.8,0.6-2.7l0,0l0,0c0-0.1,0-0.2,0-0.3c0.1-0.8,0.1-1.7,0.1-2.6l0,0l0-0.1l0,0C236.1,463.3,236,462.2,235.7,461.2z"/>
	<path fill="#48474E" d="M434.3,382c0.4-1,0.3-2-0.1-2.9c-0.4-0.9-1.2-1.6-2.1-2c-0.4-0.2-0.9-0.3-1.4-0.3c-0.5,0-1.1,0.1-1.6,0.3h0
		c-1.9,0.9-2.8,3.1-1.9,5c0.9,1.9,3.1,2.8,5,1.9C433.2,383.7,433.9,383,434.3,382z"/>
	<polygon fill="#48474E" points="235.9,528.4 233.9,529.4 235.6,530.5 	"/>
	<polygon fill="#48474E" points="245.6,539.2 243.7,538.6 244,540.7 	"/>
	<polygon fill="#48474E" points="466.1,488.6 464.1,487.9 464.4,490 	"/>
	<path fill="#48474E" d="M261.8,495.6l0.1-0.1c4.1-4.4,2.6-14.4-3.7-22.8c-0.5-0.7-1.1-1.4-1.7-2.1c-1.6,0-3.1-0.1-4.5-0.3
		c1.3,2.3,2.3,4.7,2.8,7.1c0,0,0,0,0,0c0,0,0,0,0,0s0,0,0,0c0,0,0,0,0,0c0,0,0,0,0,0c0.9,4.2,1,8.3,0.3,12c-0.3,1.5-0.7,3-1.2,4.3
		c-0.5,1.2-1,2.2-1.7,3.1c3.5,1.2,6.6,0.9,8.8-0.7C261.3,496.1,261.5,495.9,261.8,495.6z"/>
	<path fill="#48474E" d="M424.1,450.4l21.3,29C445.7,473.6,443.6,460.8,424.1,450.4z"/>
	<path fill="#48474E" d="M593.9,376.4c-0.7,0-1.4,0.2-2,0.5c-1.2,0.5-2.1,1.5-2.5,2.7v0c-0.4,1.2-0.4,2.5,0.2,3.7s1.5,2.1,2.7,2.5
		c2.5,0.9,5.3-0.4,6.2-2.9c0.9-2.5-0.4-5.3-2.9-6.2C595,376.5,594.4,376.4,593.9,376.4z"/>
	<path fill="#48474E" d="M570.8,338.5l-24.7-24.6C548.4,329.3,562.5,335.9,570.8,338.5z"/>
	<path fill="#48474E" d="M442.5,480.5l-20.6-28.1C423.2,461,427.6,476,442.5,480.5z"/>
	<path fill="#48474E" d="M547.7,311.2l25.5,25.4C565.8,315.8,553.5,311.9,547.7,311.2z"/>
	<path fill="#48474E" d="M349,399.8l9.5,33.6C364.1,418.8,355,406.1,349,399.8z"/>
	<path fill="#48474E" d="M567.2,293.3c-0.4-0.2-0.9-0.2-1.3-0.2c-0.5,0-1.1,0.1-1.6,0.3c-0.9,0.4-1.6,1.2-2,2.1
		c-0.4,1-0.3,2,0.1,2.9c0.4,0.9,1.2,1.6,2.1,2c1,0.4,2,0.3,2.9-0.1c0.9-0.4,1.6-1.2,2-2.1c0.4-1,0.3-2-0.1-2.9v0
		C568.9,294.4,568.2,293.7,567.2,293.3z"/>
	<path fill="#48474E" d="M331.9,465.8l-16.7-31.9C315.9,456,326.5,463.5,331.9,465.8z"/>
	<path fill="#48474E" d="M376.6,460.6c0.8-0.7,1.2-1.6,1.3-2.6c0.1-1-0.3-2-0.9-2.8h0c-0.8-0.9-1.8-1.3-2.9-1.3
		c-0.9,0-1.8,0.3-2.5,0.9c-0.8,0.7-1.2,1.6-1.3,2.6c-0.1,1,0.3,2,0.9,2.8C372.6,461.9,375.1,462,376.6,460.6z"/>
	<polygon fill="#48474E" points="421,483.2 419.6,481.5 419,483.7 	"/>
	<polygon fill="#48474E" points="544.4,358.8 546.5,358.3 545,356.8 	"/>
	<path fill="#48474E" d="M399.7,484.9c-4.3,0-7.7,3.5-7.7,7.7c0,4.3,3.5,7.7,7.7,7.7c4.3,0,7.7-3.5,7.7-7.7
		C407.4,488.4,403.9,484.9,399.7,484.9z"/>
	<path fill="#48474E" d="M333.6,481.4l34.9-8.9c-4.2-0.8-7.9-1.2-11.2-1.2C343.4,471.3,336.5,477.6,333.6,481.4z"/>
	<path fill="#48474E" d="M598.1,306.3l14.2,6.2c-0.3-1.7-0.6-3.5-0.9-5.2C607.6,306.5,603.2,306.1,598.1,306.3z"/>
	<path fill="#48474E" d="M318,432.8l16.2,30.9C336.6,448.4,325.1,437.8,318,432.8z"/>
	<path fill="#48474E" d="M349.4,142.3c-2.5,1.5-5.2,2.6-8.1,3.2c-2.8,4-6.5,7-10.8,8.9C338.4,153.7,345.5,149.2,349.4,142.3z"/>
	<path fill="#48474E" d="M297,128.4c-0.6,4.5,0.3,9.1,2.6,13.1c2.9,5.2,7.8,9.1,13.7,11c8.6,2.7,18,0.1,23.9-6.5
		c-1.3,0.1-2.6,0-3.9-0.1c-4.2,1.8-9,2.2-13.6,0.7c-4.4-1.4-8-4.3-10.3-7.9C304,136.6,299.8,132.9,297,128.4z"/>
	<path fill="#48474E" d="M307.1,134.3c-1.2-3.7-1.3-7.9-0.1-11.9c0.8-2.4,2-4.6,3.5-6.5c0.2-1.2,0.5-2.4,0.9-3.6
		c0.5-1.6,1.2-3.1,1.9-4.6c-5.8,1.2-11.6,2.6-17.2,4.2C295.1,121,299.5,129.8,307.1,134.3z"/>
	<path fill="#48474E" d="M332.7,142.8c0.1,0,0.1-0.1,0.1-0.1c3.9-2,6.7-5.4,8-9.5c0.7-2.1,0.9-4.2,0.7-6.3
		c-3.6,6.7-9.9,11.4-17.1,13c1.4,0.8,3,1.5,4.6,2.1C330.3,142.4,331.5,142.6,332.7,142.8z"/>
	<path fill="#48474E" d="M309.9,123.4c-1.4,4.5-0.8,9.1,1.3,12.9c0.2,0.1,0.4,0.2,0.7,0.2c1.6,0.5,3.3,0.9,5,1
		c-3.8-4.2-6.1-9.6-6.5-15.3C310.2,122.6,310,123,309.9,123.4z"/>
	<path fill="#48474E" d="M293.1,116.8c-1.4,3.9-1.8,8.1-1.2,12.3c0.4,2.7,1.3,5.2,2.5,7.5c-1-4.1-0.8-8.3,0.4-12.5
		C293.9,121.8,293.3,119.3,293.1,116.8z"/>
	<path fill="#48474E" d="M318,128.4c-1.1-1.6-1.4-3.6-0.8-5.5c0.5-1.6,1.6-2.9,3.1-3.7s3.2-0.9,4.8-0.4c2,0.6,3.5,2.2,4.1,4
		c0.7-3.8-1.5-7.7-5.3-8.9c-0.8-0.3-1.6-0.4-2.4-0.4c-3.3,0-6.4,2.1-7.5,5.5c-0.6,2-0.5,4.1,0.5,6
		C315.3,126.5,316.5,127.7,318,128.4z"/>
	<path fill="#48474E" d="M336.4,271.5l15.1-32.7C346.3,241.5,336,249.4,336.4,271.5z"/>
	<path fill="#48474E" d="M320.5,143.8c2.2,0.7,4.5,0.9,6.7,0.7c-2.6-1-5-2.3-7-3.9c-1.9,0.1-3.9,0-5.8-0.4
		C316,141.8,318.1,143,320.5,143.8z"/>
	<polygon fill="#48474E" points="355.8,229.7 357.8,228.9 356,227.7 	"/>
	<path fill="#48474E" d="M354.6,175.6c0.8,0.6,1.8,0.9,2.8,0.8c1-0.1,1.9-0.6,2.6-1.4s0.9-1.8,0.8-2.8s-0.6-1.9-1.4-2.6
		c-0.7-0.5-1.5-0.8-2.4-0.8c-0.1,0-0.3,0-0.4,0c-2.1,0.2-3.6,2.1-3.4,4.2C353.3,174.1,353.8,175,354.6,175.6z"/>
	<path fill="#48474E" d="M322.3,206.8l15.1-32.7C332.2,176.7,321.9,184.7,322.3,206.8z"/>
	<path fill="#48474E" d="M339.7,176.1l-14.6,31.7C332,202.4,343,191.3,339.7,176.1z"/>
	<polygon fill="#48474E" points="350.6,211.8 348.8,213 350.9,213.8 	"/>
	<path fill="#48474E" d="M353.8,240.9l-14.6,31.7C346.1,267.2,357.1,256.1,353.8,240.9z"/>
	<path fill="#48474E" d="M260.6,398.1l34.1-7.2c-3.4-0.9-7.8-1.8-12.7-1.8C274.8,389.1,266.7,391.1,260.6,398.1z"/>
	<path fill="#48474E" d="M258.7,430.7c-0.6,0.8-0.9,1.8-0.7,2.8c0.2,1,0.7,1.9,1.5,2.5c1.7,1.2,4.1,0.9,5.3-0.8
		c0.6-0.8,0.9-1.8,0.7-2.8c-0.2-1-0.7-1.9-1.5-2.5c-0.7-0.5-1.5-0.7-2.3-0.7C260.6,429.2,259.4,429.7,258.7,430.7z"/>
	<path fill="#48474E" d="M295.9,451.6l-16.7-31.9C278.1,425.4,278.2,438.4,295.9,451.6z"/>
	<path fill="#48474E" d="M246.1,501.3c-0.8,0.2-1.5,0.2-2.3,0.2c4.4,3.4,9,4.8,12.6,3c1.7-0.9,3.1-2.4,4-4.5
		c-2.9,1.1-6.5,0.8-10.3-0.7C248.9,500.3,247.5,501,246.1,501.3z"/>
	<path fill="#48474E" d="M282.3,419l16.1,30.9C298.4,441.2,296.3,425.8,282.3,419z"/>
	<path fill="#48474E" d="M238,458.5c0.1,0.2,0.2,0.5,0.2,0.7l0.4,0.6c0.1,0.2,0.3,0.4,0.4,0.5l0,0c0.1,0.1,0.2,0.2,0.3,0.3
		c0,0,0.1,0.1,0.1,0.1c0,0,0,0,0,0c0,0,0,0,0,0l0,0c0,0.1,0.1,0.1,0.1,0.2l0,0c0.1,0.1,0.2,0.3,0.4,0.4l0,0c0,0,0.1,0.1,0.1,0.1
		l0.1,0.1l0,0c0,0,0,0,0,0c0,0,0,0,0,0c0.1,0.1,0.1,0.1,0.2,0.2c0.1,0.2,0.3,0.3,0.4,0.4l0,0c0.2,0.2,0.3,0.3,0.5,0.5l0,0
		c0.1,0.1,0.1,0.1,0.2,0.2l0,0c0.2,0.1,0.3,0.3,0.5,0.4l0,0c0,0,0,0,0,0c0.1,0.1,0.2,0.1,0.2,0.2l0,0c0.2,0.2,0.4,0.3,0.6,0.5l0,0
		c0.1,0,0.1,0.1,0.2,0.1l0,0c0,0,0,0,0,0c0,0,0,0,0,0c0.2,0.1,0.4,0.3,0.7,0.4c0,0,0,0,0.1,0l0,0c0.1,0.1,0.2,0.1,0.3,0.2l0,0
		c0.2,0.1,0.4,0.2,0.6,0.3l0,0c0.1,0.1,0.2,0.1,0.4,0.2l0,0c0.2,0.1,0.5,0.2,0.8,0.3l0,0c0.1,0,0.2,0.1,0.3,0.1l0,0h0c0,0,0,0,0,0
		c0.3,0.1,0.7,0.3,1,0.4l0,0c0.1,0,0.2,0.1,0.4,0.1l0,0c0.3,0.1,0.6,0.2,0.9,0.3l0,0c0.1,0,0.3,0.1,0.4,0.1l0,0l0,0
		c2.5,0.7,5.3,1,8.3,1l0.6,0l0,0c1,0,2.1-0.1,3.3-0.2C257.6,463.2,249,454.7,238,458.5z"/>
	<path fill="#48474E" d="M236,476.3c-0.4,0.6-0.8,1.2-1.2,1.8c-0.8,1.2-1.7,2.3-2.6,3.2c0.4,3.2,1.2,6.1,2.6,8.9
		c1,2.1,2.2,4,3.5,5.7c2.3,2,4.8,3,7.1,2.5c1.1-0.2,2.1-0.8,3-1.6l0.3-0.3c2.5-2.5,3.9-7,3.9-12.1c0-2-0.2-4.1-0.7-6.3c0,0,0,0,0,0
		c0,0,0,0,0,0c0,0,0,0,0,0c-0.6-3-2-5.9-4-8.5c-3.9-1.1-6.7-2.8-8.7-4.5c0.1,3.8-1,7.2-2.6,10.2C236.5,475.5,236.3,475.9,236,476.3z
		"/>
	<path fill="#48474E" d="M295.6,393.8l-35.2,7.4C265.6,403.8,278.1,407.3,295.6,393.8z"/>
	<path fill="#48474E" d="M262.4,362.1l-35.9-3C230.7,363.1,241.7,370.1,262.4,362.1z"/>
	<path fill="#48474E" d="M343.6,122.1c1.3,3.9,1.4,8.1,0.1,12.1c-1.1,3.6-3.2,6.6-5.9,8.9c3-0.2,6-1.1,8.7-2.5
		c5.4-2.8,9.4-7.5,11.3-13.4s1.3-12-1.5-17.4c-1.4-2.6-3.2-5-5.4-6.8c-3,0.2-5.9,0.4-8.9,0.7C344.8,109.1,345.5,115.7,343.6,122.1z"
		/>
	<path fill="#48474E" d="M325.4,109c1.9,0,3.9,0.3,5.8,0.9c4.3,1.4,7.8,4.1,10.2,7.8c0.6-4.6-0.2-9.2-2.4-13.4
		c-0.1-0.1-0.2-0.3-0.2-0.4c-7.2,0.7-14.4,1.8-21.4,3.2c-1.1,1.6-2.1,3.4-2.8,5.3C317.8,110.2,321.6,109,325.4,109z"/>
	<path fill="#48474E" d="M326.4,125.9c0.6-1.8-0.4-3.6-2.2-4.2h0c-0.3-0.1-0.7-0.2-1-0.2c-0.5,0-1,0.1-1.5,0.4
		c-0.8,0.4-1.4,1.1-1.7,2c-0.6,1.8,0.4,3.6,2.2,4.2C323.9,128.6,325.8,127.6,326.4,125.9z"/>
	<path fill="#48474E" d="M315.8,130.6c1.3,2.6,3.1,4.9,5.3,6.8c8.6-0.9,16.4-6.6,19.3-15.3c-0.2-0.4-0.4-0.9-0.6-1.3
		c-2-3.9-5.4-6.7-9.5-8c-1.1-0.3-2.2-0.6-3.3-0.7c4.2,2.5,6.3,7.7,4.8,12.6c-1.8,5.7-7.9,8.8-13.6,7
		C317.4,131.5,316.5,131.1,315.8,130.6z"/>
	<path fill="#48474E" d="M217.9,295.5l25.3,24C240.4,311.2,233.3,297.3,217.9,295.5z"/>
	<path fill="#48474E" d="M227.6,356.2l34.7,2.9C255,354.5,240.8,348,227.6,356.2z"/>
	<path fill="#48474E" d="M241.3,321.8l-26.1-24.8C216,302.8,220.3,315.1,241.3,321.8z"/>
	<path fill="#48474E" d="M369,475.5l-33.8,8.6C349.6,490,362.5,481.3,369,475.5z"/>
	<path fill="#48474E" d="M428.2,314.5l0.5,0.3c0.2,0.1,0.4,0.2,0.6,0.3l0,0c0.2,0.1,0.3,0.2,0.5,0.3l0,0c0.1,0,0.1,0.1,0.2,0.1l0,0
		c0,0,0,0,0,0c0,0,0,0,0,0c0.2,0.1,0.3,0.2,0.5,0.2l0,0c0,0,0.1,0,0.1,0.1l0,0v0c0.1,0.1,0.3,0.1,0.4,0.2c0.1,0.1,0.3,0.1,0.4,0.2
		l0,0c0.2,0.1,0.4,0.2,0.7,0.2l0,0c0.1,0,0.2,0.1,0.3,0.1l0,0c0.2,0.1,0.4,0.1,0.6,0.2l0,0c0.1,0,0.2,0.1,0.3,0.1l0,0
		c0.2,0.1,0.5,0.1,0.8,0.2l0,0c0.1,0,0.1,0,0.2,0v0c0,0,0,0,0.1,0c0.3,0.1,0.6,0.1,0.8,0.1l0,0c0.1,0,0.2,0,0.4,0l0,0
		c0.2,0,0.5,0,0.7,0.1l0,0c0.1,0,0.3,0,0.4,0l0,0c0.3,0,0.5,0,0.8,0c0,0,0,0,0.1,0v0c0.1,0,0.2,0,0.3,0v0c0.4,0,0.8,0,1.2,0v0
		c0.1,0,0.2,0,0.4,0v0c0.3,0,0.6,0,0.9-0.1l0,0c0.1,0,0.3,0,0.4-0.1l0,0c0,0,0,0,0,0l0,0c2.6-0.3,5.3-1.1,8-2.3l0.6-0.3l0,0
		c0.9-0.4,1.9-0.9,2.9-1.5c-4.8-2.6-16-7-24.6,0.7c0.2,0.2,0.3,0.4,0.5,0.5C428.2,314.4,428.2,314.5,428.2,314.5z"/>
	<path fill="#48474E" d="M449.3,317.9c-1.5,0.6-2.9,1.1-4.2,1.5c2.1,1.6,3.9,3.4,5.3,5.5c0,0,0,0,0,0c0,0,0,0,0,0c0,0,0,0,0,0
		c0,0,0,0,0,0c0,0,0,0,0,0c4.5,6.5,6.3,13.6,5.1,18.9c3.7-0.3,6.4-1.7,7.8-4c0,0,0,0,0,0c0,0,0,0,0,0c0,0,0,0,0,0
		c0.2-0.3,0.3-0.6,0.4-0.9l0.1-0.2c0.9-2.4,0.4-5.5-1.3-8.8c-2.2-4.1-6-7.9-10.9-10.8C451,318.6,450.2,318.2,449.3,317.9z"/>
	<path fill="#48474E" d="M426.3,340.6c0.3-0.6,0.6-1.2,1-2l0.3-0.7c0.2-0.4,0.4-0.8,0.5-1.3l0,0c0.5-1.3,0.9-2.7,1.3-4.3l0,0
		l0.1-0.3l0,0c0.2-0.8,0.3-1.6,0.4-2.4l0,0l0-0.2c0.1-0.9,0.1-1.7,0.1-2.6c0,0,0,0,0,0c0-0.5,0-0.9-0.1-1.4l0,0l0-0.1
		c-0.1-0.9-0.3-1.8-0.5-2.6l0,0l0-0.1l0,0c0-0.1-0.1-0.2-0.1-0.3c-0.2-0.8-0.6-1.6-0.9-2.4l0,0l-0.1-0.1l0,0c-0.4-0.9-1-1.8-1.6-2.6
		l-0.3-0.5c0-0.1-0.1-0.1-0.1-0.2c-0.2-0.2-0.5-0.4-0.7-0.5C423.1,318.8,418.7,326.8,426.3,340.6z"/>
	<polygon fill="#48474E" points="413.2,302.6 411.3,303.6 413.3,304.6 	"/>
	<path fill="#48474E" d="M330.9,378.4c3.4-0.3,6.6-1.3,9.7-2.9c3.9-2.2,7.1-5.3,9.3-9.2c-2.5,1.5-5.2,2.6-8.1,3.2
		C338.9,373.5,335.2,376.6,330.9,378.4z"/>
	<path fill="#48474E" d="M448.1,326.6C448.1,326.6,448.1,326.6,448.1,326.6C448.1,326.6,448.1,326.6,448.1,326.6
		C448.1,326.6,448.1,326.6,448.1,326.6C448,326.6,448,326.6,448.1,326.6C448,326.6,448,326.6,448.1,326.6
		C448,326.6,448,326.6,448.1,326.6c-0.1-0.1-0.1-0.1-0.1-0.1c-1.7-2.5-4.1-4.7-7-6.3c-4,0.5-7.2,0-9.8-0.8c1.6,3.5,1.9,7.2,1.5,10.5
		c0,0.4-0.1,0.7-0.1,1.1c-0.1,0.7-0.2,1.3-0.4,2c-0.3,1.5-0.7,2.8-1.2,4.1c1.6,2.8,3.5,5.2,5.8,7.2c1.7,1.5,3.6,2.8,5.4,3.9
		c2.9,1,5.6,0.9,7.5-0.4C454.5,344.5,453.7,334.9,448.1,326.6z"/>
	<path fill="#48474E" d="M451.6,350.2c-0.6,0.4-1.3,0.8-2,1.1c5.4,1.5,10.2,0.9,12.8-2.1c1.3-1.5,1.9-3.4,1.9-5.7
		c-2.3,2.1-5.7,3.3-9.7,3.4C453.8,348.2,452.8,349.3,451.6,350.2z"/>
	<path fill="#48474E" d="M542.7,370.5l12,33.9C557.1,382.4,547.6,373.6,542.7,370.5z"/>
	<path fill="#48474E" d="M397.9,320.4c-6.2-6.1-18.7-15.4-33.4-10.1L397.9,320.4z"/>
	<path fill="#48474E" d="M397.3,323.3l-34.4-10.5C366.2,317.7,375.5,326.7,397.3,323.3z"/>
	<path fill="#48474E" d="M357.2,275.6c-0.6,0.8-0.9,1.8-0.8,2.8c0.1,1,0.6,1.9,1.4,2.5c1.7,1.3,4.1,1,5.4-0.7
		c0.6-0.8,0.9-1.8,0.8-2.8c-0.1-1-0.6-1.9-1.4-2.5s-1.8-0.9-2.8-0.8C358.7,274.2,357.8,274.7,357.2,275.6z"/>
	<path fill="#48474E" d="M416.9,257.1c-7.7,4-20.4,13.1-19.9,28.6L416.9,257.1z"/>
	<path fill="#48474E" d="M472.7,300.3l-34.4-10.5C441.6,294.6,450.9,303.7,472.7,300.3z"/>
	<path fill="#48474E" d="M440,287.2l33.4,10.1C467.1,291.2,454.6,281.9,440,287.2z"/>
	<path fill="#48474E" d="M419.5,258.5L399,288.1C404.5,286.4,416,280.4,419.5,258.5z"/>
	<path fill="#48474E" d="M615,369.1c0.1-2.1,0.2-4.3,0.3-6.5l-10.3-8.8C606.8,358.2,609.9,364.3,615,369.1z"/>
	<path fill="#48474E" d="M316.1,354.6c1.3,2.6,3.1,4.9,5.3,6.8c2.8-0.3,5.6-1.1,8.2-2.4c5.3-2.7,9.2-7.3,11.1-12.9
		c-0.2-0.4-0.4-0.9-0.6-1.3c-2-3.9-5.4-6.7-9.5-8h0c-1.1-0.3-2.2-0.6-3.3-0.7c1.7,1,3.1,2.5,4.1,4.3c1.3,2.6,1.6,5.5,0.7,8.3
		c-0.9,2.8-2.8,5-5.3,6.3c-2.6,1.3-5.5,1.6-8.3,0.7C317.7,355.5,316.9,355.1,316.1,354.6z"/>
	<path fill="#48474E" d="M324.2,338c-0.8-0.3-1.6-0.4-2.4-0.4c-3.3,0-6.4,2.1-7.5,5.5c-0.6,2-0.5,4.1,0.5,6c0.8,1.5,2,2.7,3.4,3.4
		c-0.1-0.2-0.3-0.4-0.4-0.6c-0.8-1.5-0.9-3.2-0.4-4.8s1.6-2.9,3.1-3.7s3.2-0.9,4.8-0.4c1.6,0.5,2.9,1.6,3.7,3.1
		c0.1,0.3,0.3,0.6,0.4,0.9c0.3-1.7,0.1-3.4-0.8-5C327.9,340,326.2,338.6,324.2,338L324.2,338z"/>
	<path fill="#48474E" d="M322.5,352c0.9,0.3,1.8,0.2,2.5-0.2s1.4-1.1,1.7-2c0.3-0.9,0.2-1.8-0.2-2.5c-0.4-0.8-1.1-1.4-2-1.7h0
		c-0.3-0.1-0.7-0.2-1-0.2c-1.4,0-2.7,0.9-3.2,2.3c-0.3,0.9-0.2,1.8,0.2,2.5C321,351.2,321.7,351.8,322.5,352z"/>
	<path fill="#48474E" d="M327.1,314.1c3,1,5.7,2.4,8.1,4.3c3-0.2,6.1,0.2,9.1,1.2h0c0,0,0.1,0,0.1,0c-5.8-5.6-13.9-8-21.7-6.5
		C324.2,313.4,325.6,313.7,327.1,314.1L327.1,314.1z"/>
	<path fill="#48474E" d="M359,108.4c3.2,6.1,3.8,13.1,1.7,19.7c-1.3,4.1-3.5,7.6-6.4,10.4c-2.9,9.3-10.5,16-19.5,18.2
		c1.4,3.7,5.4,11.3,15.7,13.5c0.9-2.3,3-4,5.6-4.3c1.8-0.2,3.6,0.3,5,1.4c1.4,1.1,2.3,2.7,2.5,4.6s-0.3,3.6-1.4,5
		c-1.1,1.4-2.7,2.3-4.6,2.5c-1.8,0.2-3.6-0.3-5-1.4c-1.4-1.1-2.3-2.7-2.5-4.6c0-0.1,0-0.2,0-0.2c-3.7-0.8-6.8-2.2-9.2-3.9
		c5.9,11.7,13,30.4,14.4,54.4l8.8,6.1l-8.5,3.4c0,1,0,1.9-0.1,2.9c8.1,22.4-11.8,37.5-18.1,41.6c-0.4,0.3-0.9,0.4-1.3,0.4
		c-0.4,0-0.8-0.1-1.1-0.3c-0.8-0.4-1.3-1.2-1.4-2.1c-1.3-18.2,4.2-28.3,9-33.6c3.9-4.3,8-6.2,10-6.9c0-0.3,0-0.6,0-0.9l-0.2,0.1
		l0.2-2.3c0-5.1-0.3-9.9-0.7-14.6l-9.4-3.6l8.1-5.6c-1.7-10-4.4-18.8-7.2-26.1c-0.3,16.4-14.8,27.3-20,30.7
		c-0.7,0.5-1.7,0.5-2.5,0.1c-0.8-0.4-1.3-1.2-1.4-2.1c-1.3-18.2,4.2-28.3,9-33.6c3.8-4.1,7.7-6,9.7-6.8c-4-7.9-7.4-12.5-7.9-13
		c-2.9,0.2-6,0-9-0.8c-3,0.1-6.1-0.2-9.1-1.2c-4.9-1.6-9.2-4.4-12.5-8.2c-5.9-4.2-9.7-10.4-10.8-17.6c-0.9-5.5-0.1-11,2.2-16
		c-31.7,9.8-60.8,25.7-85.7,46.3c0.5,2.2,1.1,3.6,1.2,3.9l-0.2,0.1c5.2,5.2,10.3,11.1,15.2,17.9c-4-16.1,7.5-30.4,11.8-35l0,0
		c0.6-0.7,1.5-0.9,2.3-0.7c0.9,0.2,1.6,0.8,1.8,1.7c5.7,17.3,2.9,28.4-0.5,34.7c-3.3,6.1-7.6,9-8.7,9.6c0.6,1,1.2,2,1.8,3
		c0,0,0.1,0,0.1,0l0,0.1c1.1,2,2.3,4,3.4,6.1c13.4-15.8,37.2-18.9,54.5-6.7c4.3,1.3,8.5,3.5,12.2,6.4c6.1,4.8,10.6,11.2,12.9,18.5
		c12.3,18.3,7.5,43.3-10.8,56.1c-0.7,1.1-1.4,2.2-2.3,3.2c-6.4,8.1-15.5,13.3-25.7,14.5c-3.3,0.4-6.5,0.4-9.7,0
		c-18.9,3.6-37.4-6.7-45-23.7c-2.3,7.7-4,15.3-5.1,22.7c23.1,0.2,30.8,23.4,32.6,30.6c0.2,0.9,0,1.7-0.7,2.4
		c-0.6,0.6-1.5,0.9-2.4,0.6c-17.6-4.7-25.4-13.1-28.9-19.3c-0.8-1.4-1.4-2.7-1.8-4c-0.8,10.9-0.2,21.5,1.8,31.5
		c0,0.2,0.1,0.4,0.1,0.6l0,0v0.2c1.5,7.4,3.8,14.5,6.8,21.4c18.3-15.2,39.2-1.6,45.2,2.9h0c0.7,0.5,1.1,1.4,1,2.3
		c-0.1,0.9-0.7,1.6-1.5,2c-16.7,7.4-28,5.7-34.6,3c-3.3-1.4-5.8-3.1-7.5-4.6c3.5,6.8,7.7,13.3,12.7,19.4c5.8,7.2,12.1,13.2,18.1,18
		c13.2-19.4,36.9-12.5,43.9-9.9l0,0c0.8,0.3,1.4,1,1.6,1.9c0.2,0.9-0.2,1.8-0.8,2.3c-13.8,11.9-25.2,13.5-32.3,12.8
		c-1.3-0.1-2.6-0.3-3.7-0.6c6.2,4.3,11.5,7.2,14.6,8.8l0.1,0c22.9,7.2,22.7,32.3,22.1,39.8l0,0c-0.1,0.9-0.6,1.6-1.4,2
		c-0.8,0.4-1.7,0.3-2.5-0.2c-15.1-10.1-19.8-20.6-21.1-27.6c-1-5.5-0.1-9.8,0.6-11.9c-2.9-1.5-7.2-3.9-12.3-7.3
		c2,4.4,3.4,10.5,1,17.9c0.1,0,0.1,0.1,0.2,0.1c1.5,1.1,2.4,2.7,2.7,4.5c0.3,1.8-0.2,3.6-1.3,5.1c-2.2,3-6.5,3.7-9.5,1.4
		c-1.5-1.1-2.4-2.7-2.7-4.5c-0.3-1.8,0.2-3.6,1.3-5.1c1.6-2.1,4.1-3.1,6.5-2.7c4.2-13.1-5.2-21.8-5.3-21.9h0
		c-7.1-5.4-14.8-12.4-22-21.2c-1-1.2-2-2.5-3-3.8c-0.9,3-1.8,6-2.7,8.8c1.2,0.4,6.1,2.2,10.6,7.5c4.6,5.4,9.8,15.7,8,33.8
		c-0.1,0.9-0.6,1.6-1.4,2c-0.8,0.4-1.7,0.3-2.5-0.2c-5.2-3.6-19.6-15-19.2-31.6c-1.5,3.5-3.1,6.9-4.7,10.1
		c1.2,21.8,11.6,40.3,15.3,46.2l0.3-0.1c6.1-2.3,12.3-1.7,18.3,1.8c5,3,8.5,7.3,9.8,9c0.5,0.6,0.6,1.4,0.3,2.1
		c-0.3,0.7-1,1.2-1.7,1.3c-0.9,0.1-1.7,0.2-2.5,0.3c0.1,0.1,0.2,0.3,0.3,0.4c7.3,9.8,8.6,20.9,3.6,26.5c-0.9,4.7-3.2,8.1-6.6,9.8
		c-1.5,0.8-3.2,1.1-4.9,1.1c-5.6,0-11.8-3.9-16.7-10.3c-3.2-3-5.9-7.6-7.4-13.3c-0.7,0.6-1.3,1-1.7,1.3h0c-0.6,0.5-1.4,0.6-2.1,0.3
		c-0.7-0.3-1.2-1-1.3-1.7c-2.4-17.9,5.5-24.9,9.6-27.3c-1.1-1.8-2.8-4.6-4.6-8.2l-9.7,0.1l5.8-8.7c-2.9-7.2-5.6-16.1-6.6-25.8
		c-5.8,10.3-12.4,18.8-19.4,25.8c1.8,1.3,5.1,4,7.7,8.8c3.4,6.2,6.4,17.3,0.9,34.7c-0.3,0.9-0.9,1.5-1.8,1.7
		c-0.9,0.2-1.7-0.1-2.4-0.7c-4.6-4.9-17.7-20.7-11.3-38.1c-6.6,5.6-13.4,10.1-20.1,13.6l-1.9,10.2l-6.4-6.3
		c-1.9,0.8-3.8,1.5-5.6,2.2c0.4,1.8,1,6.5-1,12.5c-0.7,2.3-1.9,4.9-3.8,7.6c5.1,8,10.5,15.7,16.4,23c2.6-0.2,5.3-0.1,7.9,0.3
		c10.2,1.5,19.2,6.8,25.4,15.1c3.8,5.1,6.3,10.9,7.2,17c3,3.9,5.2,8.2,6.6,12.8c5.5,4,11.1,7.8,16.9,11.4c5.9-14.1,14-20.3,19.9-23
		c1.3-0.6,2.6-1.1,3.8-1.4c-2.6-0.3-5.4-0.9-8.3-1.7l-7,6.6l-1.6-9.6c-5.3-2.4-10.7-5.7-15.4-10.5l-11,0.9l4.8-8.5
		c-0.8-1.3-1.7-2.6-2.4-4c-0.5,0.1-1.1,0.1-1.6,0.1c-5.9,0-10.7-4.8-10.7-10.7c0-5.9,4.8-10.7,10.7-10.7s10.7,4.8,10.7,10.7
		c0,4.3-2.5,8-6.2,9.7c3.2,5.7,7.1,10.2,11.4,13.7l9-4.5l-1.2,9.6c2.8,1.5,5.7,2.7,8.5,3.6l1.8,0.5c8.8,2.6,16.7,2.6,20.1,2.4
		c-1.6-13.3,7.2-26,20.7-29.6c0.7-0.5,1.4-1,2.1-1.4c8-4.9,17.7-4.9,25.5-0.8c1.4,0.2,2.7,0.6,4,1c3.1-15.1,7.6-28,13.2-38.9
		c-1.2-0.3-6.3-1.7-11.2-6.6c-5.1-5-11-14.8-10.7-33.1c0-0.9,0.5-1.7,1.3-2.1c0.8-0.4,1.7-0.4,2.5,0c6.1,3.5,24.4,15.9,21.3,36
		c2.1-3.7,4.3-7.1,6.6-10.3l-0.2-0.2c0,0,0.2-0.2,0.6-0.4c3.9-5.3,7.9-10,12.2-14.2c-1.8-1-5.6-3.5-8.8-8.4
		c-3.9-6-7.7-16.8-3.7-34.5c0.2-0.9,0.8-1.6,1.7-1.8c0.8-0.3,1.7-0.1,2.4,0.5c5.2,4.7,20.5,20.5,13.5,39.5
		c8.9-7.7,18.2-13.3,27-17.2c-0.5-1.7-1.5-6.4,0-12.6c1.7-6.9,7-17.1,22.7-26.3v0c0.8-0.4,1.7-0.5,2.5,0c0.8,0.4,1.2,1.2,1.3,2.1
		c0.1,5.6-0.6,21-10.6,30.9c6-1.8,11.7-3,17-3.8c2.6-1.8,10.1-8.1,9-19.7c-0.7,0-1.4-0.2-2-0.4c-1.7-0.7-3-1.9-3.8-3.6
		c-1.5-3.4,0-7.5,3.4-9h0c1.7-0.7,3.5-0.8,5.2-0.1c1.7,0.7,3,1.9,3.8,3.6s0.8,3.5,0.1,5.2c-0.7,1.7-1.9,3-3.6,3.8
		c-0.1,0-0.1,0.1-0.2,0.1c0.9,9.3-3.1,15.7-6.7,19.4c8.4-1,15.3-1,19.4-0.9c0.5-2.1,1.8-6.3,5.3-10.6c4.5-5.5,13.7-12.4,31.9-13.8
		c0,0,0,0,0,0h0c0,0,0,0,0,0c0.9-0.1,1.7,0.3,2.2,1.1c0.5,0.7,0.6,1.6,0.2,2.4c-2.8,6.2-12.9,24.7-32.1,24.7c-2.1,0-4.3-0.2-6.6-0.7
		l-0.1,0c-3.5-0.1-9.4-0.2-17,0.5c1.1,0.3,2.3,0.7,3.5,1.3c6.5,2.9,15.6,9.8,21.9,26.9l0,0c0.3,0.8,0.2,1.8-0.4,2.4
		c-0.6,0.7-1.4,1-2.3,0.9c-7.4-1.1-31.5-6.7-33.5-30.1c-7.6,1.3-16,3.5-24.6,6.9c-7.4,2.9-14.2,6.5-20.6,10.7
		c2.2-0.5,5.2-0.8,8.8-0.3c7.1,0.9,17.8,4.9,28.8,19.5c0.5,0.7,0.7,1.6,0.3,2.5c-0.3,0.8-1.1,1.4-1.9,1.5c-7.5,1-32.4,2.7-40.9-19.5
		c-6.2,4.7-11.9,10-17,16c-0.8,0.9-1.6,1.9-2.4,2.9c4.9-1.5,12.1-2.3,19.8,2.3c0.1-0.1,0.1-0.1,0.2-0.2c2.8-2.5,7.1-2.2,9.6,0.6h0
		c1.2,1.4,1.8,3.1,1.7,4.9c-0.1,1.8-0.9,3.5-2.3,4.7c-1.4,1.2-3.1,1.8-4.9,1.7c-1.8-0.1-3.5-0.9-4.7-2.3c-1.2-1.4-1.8-3.1-1.7-4.9
		c0-0.7,0.2-1.4,0.4-2c-10.1-5.8-19.1-1.5-21.7,0c-4.6,6.4-8.6,13.5-12,21.1c1.2-1.1,2.6-2.2,4.3-3.3c6.1-3.8,17-7.3,34.6-2.8
		c0.9,0.2,1.5,0.9,1.8,1.7c0.2,0.9,0,1.7-0.6,2.4c-5.1,5.4-23.3,22-43.6,10.6c-2.8,7.7-5.1,15.9-6.9,24.6c4.3,2,7.9,5.1,10.7,9
		c3.6,5.1,5.3,11.1,5,17.2c0.2-0.1,0.5-0.2,0.8-0.2l0.1-0.2c0,0,0.1,0,0.4,0.1c3-1,5.9-1.8,8.7-2.6c-0.4-1.3-1.5-6.3,0.3-13
		c1.9-6.9,7.6-16.9,23.6-25.5l0,0c0.8-0.4,1.7-0.4,2.5,0.1c0.8,0.5,1.2,1.3,1.2,2.2c-0.1,6.3-1.6,24.6-15.6,33.5
		c10.2-1.9,19.6-2.7,28.5-2.5l4.7-7.9l4,8.4c4,0.4,7.9,0.9,11.6,1.7c0-2.2,0.5-6.5,3-11.3c3.3-6.3,10.9-15,28.3-20.1l0,0
		c0.9-0.3,1.8,0,2.4,0.6c0.6,0.6,0.9,1.5,0.7,2.3c-1.5,6.5-7.3,26.2-25.4,30.6c14.2,4,26,10.5,35.3,17.3c1.3-1.3,4.9-4.4,11-6.2
		c6.9-1.9,18.3-2.3,34,6.9c0.8,0.5,1.2,1.3,1.2,2.2c0,0.9-0.5,1.7-1.2,2.1c-4.9,2.9-18.6,9.8-32.1,5.9c1.9,1.9,3.8,3.8,5.5,5.7
		c5.2,2.2,10.3,3.9,15.2,5.3c22.4-12.7,42.7-28.7,60.2-47.4c-5.3,1.5-10.9,1.8-16.3,0.9c-2.2,0.4-4.4,0.5-6.6,0.5
		c-8.5,0-16.7-2.7-23.8-7.7c-8.2-5.9-13.8-14.5-16.1-24.2c-2.9-1.2-8-3.1-14.8-4.9l-8.4,7.5l-1.4-9.5c-13.7-2.3-31.6-2.8-51,2.9
		c0.3,1,0.5,2.1,0.5,3.2c0,5.9-4.8,10.7-10.7,10.7c-5.9,0-10.7-4.8-10.7-10.7c0-5.9,4.8-10.7,10.7-10.7c3.7,0,7,1.9,8.9,4.8
		c2.3-0.7,4.6-1.3,6.9-1.8l3-9.6l6.3,7.8c4.5-0.6,8.9-1,13-1.1c-16.2-7.5-18.9-27-19.4-33.6c-0.1-0.9,0.3-1.7,1.1-2.2
		c0.7-0.5,1.7-0.6,2.5-0.2c16.5,7.7,22.7,17.4,25,24.1c1.9,5.5,1.5,9.9,1.2,12c16.2,0.9,28.9,4.8,35.8,7.5c-8.6-13.7-7.8-32,3-45.1
		c4.1-4.9,9.1-8.6,14.9-11c6.6-8.2,16-13.4,26.5-14.6c10.5-1.3,21,1.6,29.5,8c4.3,1.5,8.4,3.7,12,6.8c6,5,10.3,11.5,12.4,18.8
		c0.4,0.6,0.8,1.3,1.2,2c5.4-4,10.5-8.1,15.1-12.4c-17.6-13.7-10.6-36.4-7.9-43.2c0.3-0.8,1-1.4,1.9-1.5c0.9-0.1,1.7,0.2,2.3,0.9
		c6.8,8.3,10.2,15.6,11.6,21.7c1.9-7,3.6-14.2,4.9-21.5c-2.4-4.3-6-8.6-11.2-12.4c-2,2.7-5.6,3.9-9,2.7c-2-0.7-3.5-2.2-4.4-4.1
		s-1-4-0.3-6c0.7-2,2.2-3.5,4.1-4.4c1.9-0.9,4-1,6-0.3c3.8,1.4,5.9,5.5,4.9,9.3c4,2.9,7.2,6,9.6,9.2l1.4,0c1-6.5,1.8-13,2.3-19.6
		c-8.6-7-12.7-17.7-14.1-22.2c-0.3-0.8-0.1-1.7,0.5-2.4c0.6-0.7,1.5-0.9,2.4-0.8c4.6,0.9,8.5,2.2,11.9,3.6
		c-0.1-8.7-0.6-17.3-1.5-25.8c-11.4-3.8-19.1-13.8-21.9-17.9c-0.5-0.7-0.6-1.7-0.2-2.5c0.4-0.8,1.1-1.3,2-1.4
		c6.6-0.6,12.1-0.2,16.8,0.6c-1-4.8-2-9.6-3.3-14.4c-9.1-9.4-10.4-23.5-10.5-28.8c0-0.6,0.2-1.1,0.5-1.5
		c-5.1-12.8-11.3-25-18.3-36.6c-3,1.1-6.1,1.6-9.1,1.6c-8.7,0-17.4-4.2-22.7-12c-2.4-1.9-4.4-4.2-6.1-6.8c-2.7-4.4-4.1-9.4-4-14.4
		c-1.5-6.2-0.7-12.5,2.1-18.2c-11.8-11.4-24.6-21.6-38.4-30.6c-0.4,2.8-2.3,5.3-5.2,6.3c-4.1,1.4-8.6-0.8-10-4.9
		c-1.2-3.3,0.1-6.9,2.8-8.9c0,0,0,0,0-0.1c-11-6.2-22.5-11.6-34.4-16.2c-1.8,0.2-3.1,0.4-3.5,0.5c-2.1,2.7-3.9,5.5-5.3,8.2l5,8
		l-8.7-0.3c-1.1,2.7-1.9,5-2.3,6.5c21.5,1.4,38.5,19.3,38.3,40.9c2,7.1,1.9,14.9-0.6,22.4c-1.5,4.5-3.8,8.6-6.7,12.2
		c-0.3,0.8-0.6,1.5-1,2.2c3.5,1.6,6.9,3.3,10.1,5c0.6-1.2,3.2-5.7,9.1-9.3c6.1-3.7,17-7.1,34.6-2.5c0.9,0.2,1.5,0.9,1.8,1.7
		c0.2,0.9,0,1.7-0.6,2.4c-4.4,4.5-18,16.9-34.3,13.8c8.6,5.5,16,11.3,22.2,17.3l10-2.9l-3.2,10.1c2.5,2.8,4.7,5.7,6.8,8.5
		c1.6-1.6,4.8-4.4,9.9-6.2c6.7-2.4,18.1-3.5,34.4,4.7h0c0.8,0.4,1.3,1.2,1.4,2.1c0.1,0.9-0.3,1.7-1.1,2.2c-5.5,3.8-23.3,14.1-39.5,5
		c3.1,5.2,5.7,10.4,7.7,15.6l0,0c0.3,0.5,6.7,11.1,20.3,9.7c0-0.7,0.2-1.4,0.4-2c0.6-1.7,1.9-3.1,3.5-3.8s3.5-0.8,5.2-0.2
		c1.7,0.6,3.1,1.9,3.8,3.5h0c0.8,1.7,0.8,3.5,0.2,5.2c-0.6,1.7-1.9,3.1-3.5,3.8c-1.7,0.8-3.5,0.8-5.2,0.2c-1.7-0.6-3.1-1.9-3.8-3.5
		c0-0.1-0.1-0.1-0.1-0.2c-8.3,0.9-14.3-2.2-18.2-5.4c1.5,4.8,2.7,9.5,3.5,13.9c1.8-0.1,6.6,0.1,12.2,3c6.3,3.3,15,10.9,20.1,28.3
		c0.3,0.9,0,1.8-0.6,2.4c-0.6,0.6-1.5,0.9-2.4,0.7c-5.5-1.2-20.3-5.6-27.5-17.7c0.1,2.6,0.2,5.1,0.1,7.5l0.6,2.7l-0.6-0.2
		c-0.2,6.7-0.9,12.8-1.7,18l7.5,7l-9.3,2.2c-0.4,1.8-0.8,3.4-1.2,4.7c2,1,5.7,3.2,9.1,7.7c4.3,5.7,8.8,16.3,5.8,34.2
		c-0.1,0.9-0.7,1.6-1.6,1.9c-0.3,0.1-0.6,0.2-0.9,0.2c-0.5,0-1.1-0.2-1.5-0.5c-5.9-4.7-24.5-21.6-14.1-43.3l0.1-0.1
		c0.3-1.1,0.7-2.4,1.1-4l-0.1,0l0.3-1c0.7-3.1,1.6-7.1,2.2-11.7c-0.6,1-1.3,2.1-2.1,3.1c-4.3,5.7-13.3,12.8-31.4,14.9
		c-0.9,0.1-1.7-0.3-2.3-1c-0.5-0.7-0.6-1.6-0.3-2.4c2.9-6.9,14-29,37.2-25.4c0.1-1.7,0.2-3.4,0.2-5.2l-8.6-2.2l8.5-7.6
		c-0.2-3.4-0.5-6.9-1-10.5c-1.1-7.8-2.9-15.4-5.5-22.6c-0.1,2.3-0.5,5.3-1.8,8.6c-2.5,6.7-9,16.1-25.8,23.3
		c-0.8,0.4-1.7,0.2-2.5-0.3c-0.7-0.5-1.1-1.4-1-2.2c0.8-7.5,5.1-32.1,28.7-35.1c-2.9-6.9-6.6-13.4-11-19.6l-0.1-0.1l0,0
		c-0.1-0.2-0.3-0.4-0.4-0.5c-6-8.3-13.3-15.9-21.8-22.8c0.6,1.2,1.2,2.5,1.7,4c2.2,6.8,3,18.2-5.6,34.3v0c-0.4,0.8-1.2,1.3-2.1,1.3
		c-0.9,0-1.7-0.4-2.2-1.1c-4-6.2-15.7-27.7-0.1-44.7c-4.4-3-9-5.9-14-8.5c0.8,4.6,1.3,14.4-7.2,22.5c0,0.1,0.1,0.1,0.1,0.2
		c1.6,3.4,0.2,7.5-3.2,9.1h0c-1.6,0.8-3.5,0.9-5.2,0.3c-1.7-0.6-3.1-1.9-3.9-3.5c-0.8-1.6-0.9-3.5-0.3-5.2c0.6-1.7,1.9-3.1,3.5-3.9
		c1.6-0.8,3.5-0.9,5.2-0.3c0.7,0.2,1.3,0.6,1.8,1c9.9-9.6,5.7-21.6,5.7-21.8l0.3-0.1c-2.7-1.4-5.5-2.7-8.3-4
		c-9.5,17.1-30,25.4-48.8,18.9c-6,1-12.2,0.6-18.4-1.5v0c-9.8-3.3-17.7-10.1-22.3-19.4c-3-6.1-4.4-12.7-4-19.2
		c-8.4-20.9,1.4-44.7,22.1-53.3c10-8.6,24.1-11.9,37.4-7.4c0.8,0.3,1.6,0.5,2.3,0.9c0.4-1.4,1.1-3.4,2.1-5.9l-0.8,0l4.1-7.6
		c-12.4-2.6-18.9-10.8-22.2-19.1c-17.5-3.9-35.7-6-54.4-6c-3.3,0-6.6,0.1-9.9,0.2C356.6,104.4,358,106.3,359,108.4z M366.9,277.1
		c0.2,1.8-0.3,3.6-1.4,5c0,0.1-0.1,0.1-0.1,0.2c5.3,7.9,4.6,15.7,3.1,20.6c7.2-4.4,16-8.9,26-12.1l-0.1-0.3
		c-4.2-23.6,18.1-35.1,25.1-38c0.8-0.3,1.7-0.2,2.4,0.3c0.7,0.5,1.1,1.4,1,2.3c-2,18.1-9.1,27.1-14.7,31.5c-0.6,0.5-1.2,0.9-1.7,1.2
		c8.6-1.7,17.9-2.3,27.9-1.3l0.2-0.1c21.2-11.3,38.9,6.5,43.9,12.2v0c0.6,0.7,0.8,1.6,0.5,2.4c-0.3,0.8-1,1.5-1.9,1.6
		c-17.8,3.7-28.6-0.3-34.5-4.3c-4.7-3.2-7.1-6.9-8.1-8.8c-18.9-1.9-35.7,2.1-49.3,8c8.6,0.6,15.9,2.6,21.9,5l8.7-4.9l0.5,9.4
		c3.7,2.2,6.4,4.3,8.1,5.7c0,0,0,0,0,0l0.6-0.5c4.7-4.5,10.7-6.4,17.5-5.4c5.8,0.8,10.6,3.4,12.5,4.5c0.7,0.4,1.1,1.1,1,1.9
		c0,0.8-0.4,1.5-1.1,1.9c-0.8,0.4-1.5,0.9-2.2,1.2c0.2,0.1,0.3,0.2,0.5,0.3c5.3,3.2,9.6,7.4,12,11.9c2.2,4,2.7,7.9,1.5,11.1
		c1,4.6,0.2,8.7-2.3,11.6c-4.8,5.5-14.3,5.2-23.4-0.2c-4.1-1.5-8.4-4.7-12-9.4c-0.4,0.8-0.8,1.4-1,1.9c-0.4,0.7-1.1,1.1-1.8,1.1
		c0,0,0,0,0,0c-0.8,0-1.5-0.4-1.9-1.1c-8.8-15.1-4.8-24.5-2-28.5c-4.9-4.1-19.8-14.7-42.7-14.7c-0.2,0-0.3,0-0.5,0
		c-3.7,1.8-7,3.8-10.1,5.7c16.6-2.5,29.8,10.8,33.9,15.6c0.6,0.7,0.8,1.6,0.5,2.4c-0.3,0.8-1,1.5-1.9,1.6
		c-17.8,3.7-28.6-0.3-34.5-4.3c-4.4-3-6.8-6.4-7.9-8.4c-4.6,3.6-7.9,6.6-9.7,8.3c0.4,0.5,0.7,1,1,1.5c9.4,6.2,14,18.1,10.4,29.4
		c-1.3,4.1-3.5,7.6-6.4,10.4c-2.1,6.7-6.6,12.2-12.7,15.6c-4.1,2.2-8.6,3.4-13.2,3.4c-2.4,0-4.8-0.3-7.1-0.9c-3,0.2-6.1-0.2-9.1-1.2
		c-4.9-1.6-9.2-4.4-12.5-8.2c-12-8.5-14.7-25.4-6.2-37.9c0.2-0.8,0.4-1.6,0.6-2.4c2.9-9,10.2-15.3,18.7-17.3
		c11.3-6.8,25.8-4.4,34.5,5.2c1.9-1.9,5.4-5.1,10.3-8.8l0-0.1l0.4-0.2c1.8-1.3,3.7-2.7,5.9-4.2c1.5-2.9,5-11.9-1.3-21.5
		c-2.2,1-5,0.8-7-0.8c-3-2.3-3.5-6.6-1.2-9.6c1.1-1.4,2.7-2.3,4.5-2.6c1.8-0.2,3.6,0.3,5,1.4C365.8,273.7,366.7,275.3,366.9,277.1z"
		/>
	<path fill="#48474E" d="M613.6,322c-0.2-2-0.5-4-0.8-6l-15.7-6.9C600.5,313.4,606.2,319.1,613.6,322z"/>
	<path fill="#48474E" d="M337.5,370.1c-1.3,0-2.6,0-3.9-0.1c-4.2,1.8-9,2.2-13.6,0.7c-4.4-1.4-8-4.3-10.3-7.9
		c-5.1-2-9.4-5.6-12.3-10.3c-0.6,4.5,0.3,9.1,2.6,13.1c2.9,5.2,7.8,9.1,13.7,11C322.2,379.3,331.6,376.6,337.5,370.1z"/>
	<path fill="#48474E" d="M615.4,358.8c0-1.5,0-2.9,0.1-4.4c-2.6-1.1-5.5-2.1-8.8-3L615.4,358.8z"/>
	<path fill="#48474E" d="M293.5,340.9c-2.3,6.6-1.8,13.7,1.3,19.7c-0.9-4-0.8-8.3,0.4-12.4C294.2,345.8,293.7,343.4,293.5,340.9z"/>
	<path fill="#48474E" d="M334.2,321.5c-2.8,0.3-5.6,1.1-8.2,2.4c-5.1,2.6-9,7-10.9,12.4c0.6-0.4,1.2-0.8,1.9-1.1
		c4.6-2.4,9.8-2.8,14.7-1.2c4.4,1.4,7.9,4.2,10.2,7.8C342.9,334.1,339.9,326.5,334.2,321.5z"/>
	<path fill="#48474E" d="M307.5,358.4c-1.2-3.7-1.4-7.9-0.1-11.9c0.8-2.4,2-4.6,3.6-6.5c0.2-1.2,0.5-2.4,0.9-3.6
		c2.1-6.6,6.6-11.9,12.8-15.1c2-1,4-1.8,6.1-2.3c-1.4-0.8-3-1.5-4.6-2c-2.3-0.7-4.6-1.1-6.9-1.1c-9.7,0-18.7,6.2-21.8,15.9
		c-1.9,5.8-1.3,12,1.5,17.4C300.9,353.1,303.9,356.2,307.5,358.4z"/>
	<path fill="#48474E" d="M327.5,368.5c-2.6-1-4.9-2.3-7-3.9c-1.9,0.1-3.9,0-5.8-0.4c1.7,1.6,3.8,2.9,6.2,3.6
		C323.1,368.5,325.3,368.7,327.5,368.5z"/>
	<path fill="#48474E" d="M310.3,347.4c-1.4,4.5-0.8,9.1,1.3,12.9c0.2,0.1,0.4,0.2,0.7,0.2c1.6,0.5,3.3,0.9,5,1
		c-3.8-4.2-6.1-9.6-6.5-15.3C310.5,346.6,310.4,347,310.3,347.4z"/>
	<path fill="#48474E" d="M333.1,366.8c3.8-1.9,6.8-5.2,8.2-9.6c0.7-2.1,0.9-4.2,0.7-6.3c-2.4,4.6-6.2,8.3-10.9,10.7
		c-2,1-4,1.8-6.1,2.3c1.4,0.8,3,1.5,4.6,2C330.7,366.4,331.9,366.6,333.1,366.8z"/>
	<path fill="#48474E" d="M338.4,321.5c5.8,6.5,8.2,15.7,5.6,24.6c1.3,3.8,1.4,8,0.1,12.1c-1.1,3.6-3.2,6.6-5.9,8.9
		c9-0.7,17.1-6.7,20-15.8c3.8-12-2.8-24.9-14.8-28.7C341.7,322,340.1,321.6,338.4,321.5z"/>
	<path fill="#48474E" d="M496.6,240.1l0.3,35.9C506.2,256.3,500.3,244.7,496.6,240.1z"/>
	<path fill="#48474E" d="M493.6,240.9c-9.2,12.5-3.8,27.2,0.3,34.9L493.6,240.9z"/>
	<polygon fill="#48474E" points="515.6,250.1 517,251.6 517.7,249.5 	"/>
	<path fill="#48474E" d="M483.7,223.3l35-8.6c-4.3-0.9-8.2-1.3-11.6-1.3C493.4,213.4,486.6,219.6,483.7,223.3z"/>
	<path fill="#48474E" d="M467.5,249.9c-0.4-0.1-0.9-0.2-1.3-0.2c-0.6,0-1.1,0.1-1.6,0.4c-0.9,0.4-1.6,1.2-2,2.2s-0.3,2,0.1,2.9
		c0.4,0.9,1.2,1.6,2.2,2c1,0.3,2,0.3,2.9-0.1c1.9-0.9,2.7-3.2,1.8-5.1C469.3,250.9,468.5,250.2,467.5,249.9z"/>
	<path fill="#48474E" d="M546.3,258.6c-8.7,0-14.2,3.4-17,5.8l36-1.2C557.8,259.8,551.5,258.6,546.3,258.6z"/>
	<path fill="#48474E" d="M519.1,217.6l-33.9,8.3C499.6,232,512.6,223.4,519.1,217.6z"/>
	<path fill="#48474E" d="M534.3,290.7l-22.2,28.2C531.7,309.3,534.3,296.5,534.3,290.7z"/>
	<path fill="#48474E" d="M511.1,362.1l28.5-20.1c-0.3,0-0.5,0-0.8,0C523.8,342.1,515,354.5,511.1,362.1z"/>
	<path fill="#48474E" d="M565.2,266.1l-34.8,1.2C543.1,276.2,557.6,270.4,565.2,266.1z"/>
	<path fill="#48474E" d="M551.7,405.1l-11.6-32.9C535.5,387.1,545.3,399.2,551.7,405.1z"/>
	<path fill="#48474E" d="M542,344l-29.5,20.7C534.4,361.2,540.4,349.6,542,344z"/>
	<path fill="#48474E" d="M421.8,141.2c-14.9,0-28.8,9.4-33.8,24.3c-1.1,3.2-1.7,6.5-1.8,9.7c7.4-7.2,17.5-11.2,28.1-10.8
		c9.4-8.6,22.9-12.3,36-8.9c-4.2-5.6-10.1-10.1-17.2-12.4C429.3,141.8,425.5,141.2,421.8,141.2z"/>
	<path fill="#48474E" d="M509.9,316.8l21.6-27.4C516.5,293.5,511.5,308.3,509.9,316.8z"/>
	<polygon fill="#48474E" points="543.6,331 543.2,329 541.5,330.5 	"/>
	<path fill="#48474E" d="M451.7,159.1c-11.7-3.9-24.1-1.4-33.2,5.7c2.3,0.3,4.5,0.9,6.8,1.6c1.8,0.6,3.6,1.3,5.3,2.2
		c0.7,0,1.3-0.1,2-0.1c3,0,6.1,0.5,9.1,1.5c6.5,2.2,11.8,6.5,15.3,12.2c1.2-8-0.3-15.9-4.1-22.7
		C452.4,159.3,452.1,159.2,451.7,159.1z"/>
	<path fill="#48474E" d="M412.8,180.9c-1.9,2.4-3.5,5.1-4.5,8.1c-2.2,6.5-1.7,13.4,1.4,19.5c0.4,0.8,0.8,1.5,1.2,2.2
		c8.9,2.8,18.4,2.1,26.7-2.1c4.2-2.1,7.9-4.9,10.9-8.3c-0.4-5.8-2.3-11.3-5.3-16.2c0.3,2.3,0.1,4.6-0.7,6.9c-1.3,4-4.1,7.2-7.9,9.1
		s-8,2.2-12,0.8c-8.2-2.7-12.7-11.7-9.9-19.9C412.7,181,412.8,180.9,412.8,180.9z"/>
	<path fill="#48474E" d="M439.2,191.4c0.2-0.4,0.4-0.8,0.5-1.3c2.2-6.7-1.4-13.9-8-16.1c-1.3-0.4-2.7-0.7-4-0.7
		c-1.9,0-3.9,0.5-5.7,1.3c-3,1.5-5.3,4.1-6.4,7.4c-2.2,6.7,1.4,13.9,8,16.1c0.6,0.2,1.1,0.3,1.7,0.4c-3.2-2.2-4.7-6.3-3.4-10.2
		c0.8-2.2,2.3-4.1,4.5-5.1c2.1-1.1,4.5-1.2,6.8-0.5C436.9,184.1,439.2,187.6,439.2,191.4z"/>
	<path fill="#48474E" d="M423.6,224.2c1.7,0.9,3.6,1.7,5.5,2.4c2.9,1,5.9,1.6,8.9,1.8c1.3-1.3,2.5-2.7,3.6-4.2
		C435.8,226.1,429.6,226.2,423.6,224.2z"/>
	<path fill="#48474E" d="M430.3,185.4c-0.9,0-1.8,0.2-2.6,0.6c-1.4,0.7-2.5,1.9-3,3.4c-1,3.1,0.6,6.4,3.7,7.4
		c1.5,0.5,3.1,0.4,4.5-0.3c1.4-0.7,2.5-1.9,3-3.4c1-3.1-0.6-6.4-3.7-7.4C431.6,185.5,430.9,185.4,430.3,185.4z"/>
	<path fill="#48474E" d="M444.4,219.7c0.9-1.7,1.7-3.6,2.4-5.5c1.1-3.2,1.7-6.4,1.8-9.7c-2.8,2.7-6,5-9.6,6.7
		c-7.9,3.9-16.6,5-25.1,3.3c2.9,3,6.4,5.4,10.5,6.7c6.5,2.2,13.4,1.7,19.5-1.4C444.1,219.9,444.3,219.8,444.4,219.7z"/>
	<path fill="#48474E" d="M401.8,236.7c5.9,2,11.9,2.3,17.6,1.3l0,0c0,0,0.1,0,0.1,0c5.6-1,10.9-3.4,15.5-6.9
		c-2.3-0.3-4.5-0.9-6.8-1.6c-9.1-3-16.3-9.2-20.9-16.8c-12.8-5.2-21.5-16.7-23.6-29.7c-1.8,2.7-3.3,5.6-4.4,8.8
		c-3,9-2.3,18.7,1.9,27.2S392.8,233.7,401.8,236.7z"/>
	<path fill="#48474E" d="M444.2,145.4c4.4,3.1,8,7.1,10.7,11.7c8,3.2,14.3,8.9,18.5,15.8c-1.6-6.2-4.8-12-9.4-16.7
		C458.5,150.6,451.7,146.9,444.2,145.4z"/>
	<path fill="#48474E" d="M390.3,154.5c-12.3,8.8-18.3,24.5-14.8,39.6c0.3-1.1,0.6-2.3,1-3.4c1.5-4.6,3.9-8.7,6.8-12.3
		c-0.2-4.6,0.4-9.3,2-13.9C386.4,160.9,388.2,157.6,390.3,154.5z"/>
	<path fill="#48474E" d="M386.3,179.5c0.9,11.9,7.9,22.9,18.7,28.7c-3.7-8.4-4.4-18.2-1.2-27.6c1.7-5,4.3-9.4,7.5-13.2
		C401.7,167.9,392.7,172.3,386.3,179.5z"/>
	<path fill="#48474E" d="M455.5,188.1c0.2-0.5,0.3-0.9,0.4-1.4c-0.2-0.4-0.3-0.7-0.5-1.1c-3-6.1-8.3-10.7-14.8-12.8
		c-1.7-0.6-3.3-0.9-5-1.1c8.4,6,13.9,15.2,15.5,25.2C453,194.2,454.5,191.3,455.5,188.1z"/>
	<path fill="#48474E" d="M406.7,181.5c-0.9,2.8-1.5,5.6-1.7,8.3c0.2-0.6,0.3-1.2,0.6-1.9c2.4-7.2,7.5-13.1,14.3-16.5
		c1.7-0.9,3.5-1.5,5.3-2c-0.3-0.1-0.5-0.2-0.8-0.3c-2.9-1-5.9-1.6-8.9-1.8C411.6,171.3,408.5,176,406.7,181.5z"/>
	<path fill="#48474E" d="M448.2,236.8c6.3-2.9,11.5-7.5,15.4-13.1c-1.8,1.4-3.8,2.6-5.9,3.6c-5.8,2.9-12.2,4.3-18.5,4.1
		c-4,3.7-8.8,6.5-14,8.2C432.9,241.1,440.9,240.2,448.2,236.8z"/>
	<path fill="#48474E" d="M457.1,161.4c3.4,7.7,4.2,16.5,2,25.1c2.5,6.3,2.7,13.1,0.5,19.6c-2.3,6.8-6.9,12.3-13,15.8
		c-1.3,2.3-2.8,4.5-4.6,6.4c4.9-0.2,9.7-1.5,14.2-3.7c4.4-2.2,8.3-5.3,11.4-9c0-0.1,0.1-0.1,0.1-0.2l0.1,0c2.8-3.3,4.9-7.2,6.3-11.4
		c2.4-7.1,2.4-14.4,0.5-21l0,0c0,0,0,0,0,0C472,173.9,465.8,166,457.1,161.4z"/>
	<path fill="#48474E" d="M456.8,205.2c1.5-4.5,1.7-9.3,0.7-13.8c-1.5,3.6-3.5,7-5.9,9.9c0.2,4.6-0.4,9.3-2,13.8
		c-0.2,0.5-0.3,0.9-0.5,1.3C452.7,213.6,455.3,209.7,456.8,205.2z"/>
</g>
</svg>
